<?xml version="1.0" encoding="UTF-8"?>
<svg width="280px" height="83px" viewBox="0 0 280 83" version="1.1" xmlns="http://www.w3.org/2000/svg" xmlns:xlink="http://www.w3.org/1999/xlink">
    <title>2B06A9DE-E82B-42C5-AE36-F2D29B9FA65B</title>
    <defs>
        <linearGradient x1="-0.0144056292%" y1="50%" x2="194.857753%" y2="50%" id="linearGradient-1">
            <stop stop-color="#D9D9D9" offset="0%"></stop>
            <stop stop-color="#CFCFCF" offset="5.99595717%"></stop>
            <stop stop-color="#BEBEBE" offset="50.1119974%"></stop>
            <stop stop-color="#9E9E9E" offset="83%"></stop>
            <stop stop-color="#050505" offset="100%"></stop>
        </linearGradient>
        <linearGradient x1="-0.0144056292%" y1="50%" x2="194.857753%" y2="50%" id="linearGradient-2">
            <stop stop-color="#D9D9D9" offset="0%"></stop>
            <stop stop-color="#CFCFCF" offset="5.99595717%"></stop>
            <stop stop-color="#BEBEBE" offset="50.1119974%"></stop>
            <stop stop-color="#9E9E9E" offset="83%"></stop>
            <stop stop-color="#050505" offset="100%"></stop>
        </linearGradient>
    </defs>
    <g id="WIP" stroke="none" stroke-width="1" fill="none" fill-rule="evenodd">
        <g id="01.-Braftovi+Mektovi_Homepage_Desktop_option1" transform="translate(-888.000000, -145.000000)">
            <g id="Navigation/US/Header/Desktop/Heading-and-Sub" transform="translate(0.000000, 22.000000)">
                <g id="Logo/US/White/Right/Braftovi-+-Mektovi" transform="translate(888.000000, 123.000000)">
                    <g id="Braftovi_Mektovi_R_RGB" transform="translate(1.000000, 11.000000)">
                        <polygon id="Path" fill="#FFFFFF" fill-rule="nonzero" points="228.925486 51.2345019 228.193826 51.5308243 228.193826 50.4955252 229.199858 50.1077453 229.931518 50.1077453 229.931518 57.3182561 228.925486 57.3182561"></polygon>
                        <path d="M230.985109,57.2267986 L230.985109,56.2317408 C231.239982,56.3708244 231.525203,56.4449566 231.815543,56.4475805 C232.441113,56.4475805 232.839868,55.8842022 232.839868,55.0135266 L232.839868,54.9549938 C232.839868,54.0733433 232.474038,53.7660461 232.020408,53.7660461 C231.830397,53.7650799 231.642267,53.8037026 231.468005,53.8794534 L230.955843,53.5392314 L231.131441,50.1589615 L233.567869,50.1589615 L233.567869,51.1210946 L231.899684,51.1210946 L231.797252,52.9063454 C231.965841,52.8564037 232.140906,52.8317467 232.316731,52.8331794 C233.095949,52.8331794 233.834925,53.4075326 233.834925,54.9440189 L233.834925,55.0245015 C233.834925,56.5207465 233.033758,57.4206885 231.907001,57.4206885 C231.590119,57.4157267 231.277144,57.3499026 230.985109,57.2267986 L230.985109,57.2267986 Z" id="Path" fill="#FFFFFF" fill-rule="nonzero"></path>
                        <path d="M236.520118,51.8600714 L237.493226,51.8600714 L237.493226,52.5441736 C237.720041,52.0942026 238.016363,51.7686139 238.499259,51.7686139 C238.94383,51.7805354 239.331118,52.0750516 239.461392,52.500274 C239.651354,52.0860442 240.049865,51.8063872 240.504008,51.7686139 C241.140552,51.7686139 241.674664,52.2880926 241.674664,53.2831504 L241.674664,57.3072812 L240.701556,57.3072812 L240.701556,53.4916735 C240.701556,52.9392701 240.504008,52.6429477 240.167444,52.6429477 C239.83088,52.6429477 239.582116,52.9685365 239.582116,53.5136233 L239.582116,57.3219144 L238.60535,57.3219144 L238.60535,53.4916735 C238.60535,52.9392701 238.41146,52.6429477 238.074896,52.6429477 C237.738332,52.6429477 237.489568,52.9685365 237.489568,53.5136233 L237.489568,57.3219144 L236.520118,57.3219144 L236.520118,51.8600714 Z" id="Path" fill="#FFFFFF" fill-rule="nonzero"></path>
                        <path d="M242.775812,58.485254 L242.775812,57.5743371 C243.119332,57.710513 243.482443,57.7907929 243.851353,57.8121267 C244.109811,57.851719 244.371766,57.7667168 244.557733,57.5829115 C244.743701,57.3991062 244.831761,57.1381639 244.795194,56.87926 L244.795194,56.1219917 C244.608621,56.539038 244.312299,56.9999839 243.778187,56.9999839 C243.105059,56.9999839 242.548998,56.2683238 242.548998,54.4391734 L242.548998,54.3660074 C242.548998,52.5112489 243.105059,51.8051969 243.778187,51.8051969 C244.312299,51.8051969 244.608621,52.2551679 244.795194,52.6758724 L244.795194,51.8966544 L245.775619,51.8966544 L245.775619,56.9780341 C245.807543,57.4484803 245.644862,57.9113931 245.325648,58.2584394 C244.946456,58.5850044 244.452731,58.7469461 243.953785,58.7084104 C243.551835,58.6964426 243.154289,58.6211313 242.775812,58.485254 L242.775812,58.485254 Z M244.813486,54.409907 L244.813486,54.3586908 C244.813486,53.2612006 244.506189,52.6905056 244.147675,52.6905056 C243.789162,52.6905056 243.522106,53.2612006 243.522106,54.3696657 L243.522106,54.3989321 C243.522106,55.4964223 243.789162,56.0780921 244.147675,56.0780921 C244.506189,56.0780921 244.813486,55.5073972 244.813486,54.409907 L244.813486,54.409907 Z" id="Shape" fill="#FFFFFF" fill-rule="nonzero"></path>
                        <path d="M248.786401,56.3853894 L248.786401,52.6685558 L248.398621,52.6685558 L248.398621,51.8600714 L248.786401,51.8600714 L248.786401,50.4260175 L249.763167,50.4260175 L249.763167,51.8600714 L250.469219,51.8600714 L250.469219,52.6685558 L249.763167,52.6685558 L249.763167,56.0780921 C249.763167,56.3963643 249.916815,56.4987967 250.161922,56.4987967 C250.267644,56.5005146 250.372484,56.4792972 250.469219,56.4366056 L250.469219,57.2377735 C250.280519,57.3279172 250.074689,57.3765679 249.865599,57.3804472 C249.280271,57.3804472 248.786401,57.1755824 248.786401,56.3853894 Z" id="Path" fill="#FFFFFF" fill-rule="nonzero"></path>
                        <path d="M251.061864,55.7817698 L251.061864,55.6281211 C251.061864,54.4720981 251.563051,53.8977449 252.342269,53.8977449 C252.614968,53.9004372 252.882726,53.9708338 253.121487,54.1026097 L253.121487,53.6709302 C253.121487,53.0490191 252.832481,52.7087971 252.280078,52.7087971 C251.951061,52.7200646 251.629179,52.8077367 251.339894,52.9648782 L251.339894,52.0283532 C251.679283,51.8795998 252.044923,51.8000047 252.415435,51.794222 C252.863676,51.7638536 253.30454,51.9200757 253.633649,52.2259015 C253.959831,52.6065828 254.120498,53.1017529 254.079962,53.6014225 L254.079962,57.3182561 L253.095879,57.3182561 L253.095879,56.6743952 C252.965961,57.0952375 252.584807,57.3884323 252.144721,57.4060713 C251.519151,57.4097136 251.061864,56.7841442 251.061864,55.7817698 Z M253.121487,55.8037196 L253.121487,54.8196367 C252.955199,54.7357412 252.773348,54.6871648 252.587375,54.676963 C252.221545,54.676963 252.005705,54.9842602 252.005705,55.5769049 L252.005705,55.686654 C252.005705,56.2902736 252.21057,56.575621 252.525184,56.575621 C252.839798,56.575621 253.121487,56.2646655 253.121487,55.8037196 Z" id="Shape" fill="#FFFFFF" fill-rule="nonzero"></path>
                        <path d="M256.029836,56.539038 L256.029836,57.3182561 L255.056728,57.3182561 L255.056728,50.0857955 L256.029836,50.0857955 L256.029836,52.646606 C256.212751,52.2368764 256.512732,51.7686139 257.043185,51.7686139 C257.719971,51.7686139 258.283349,52.500274 258.283349,54.3879572 L258.283349,54.7903703 C258.283349,56.6743952 257.719971,57.4097136 257.043185,57.4097136 C256.512732,57.4097136 256.223726,56.9597426 256.029836,56.539038 Z M257.310241,54.7464707 L257.310241,54.4318568 C257.310241,53.3051002 257.065135,52.6905056 256.684672,52.6905056 C256.304209,52.6905056 256.018861,53.3051002 256.018861,54.4208819 L256.018861,54.7574456 C256.018861,55.8732273 256.307867,56.4878218 256.684672,56.4878218 C257.061477,56.4878218 257.310241,55.8659107 257.310241,54.7464707 Z" id="Shape" fill="#FFFFFF" fill-rule="nonzero"></path>
                        <polygon id="Path" fill="#FFFFFF" fill-rule="nonzero" points="259.201583 50.0857955 260.174691 50.0857955 260.174691 57.3182561 259.201583 57.3182561"></polygon>
                        <path d="M261.049025,54.7172043 L261.049025,54.5013645 C261.049025,52.7087971 261.780685,51.7759305 262.655019,51.7759305 C263.529353,51.7759305 264.162239,52.730747 264.162239,54.5013645 L264.162239,55.0354764 L262.022133,55.0354764 C262.073349,56.0780921 262.50137,56.4987967 263.006216,56.4987967 C263.355192,56.4863303 263.689986,56.3575633 263.957374,56.1329666 L264.037856,57.0438835 C263.699731,57.2826657 263.295772,57.4105008 262.881833,57.4097172 C261.886776,57.4097172 261.049025,56.4987967 261.049025,54.7172043 Z M263.244005,54.2562584 C263.244005,53.2429091 263.028165,52.646606 262.658677,52.646606 C262.289189,52.646606 262.044082,53.1514515 262.014816,54.2562584 L263.244005,54.2562584 Z" id="Shape" fill="#FFFFFF" fill-rule="nonzero"></path>
                        <path d="M265.135347,56.3853894 L265.135347,52.6685558 L264.747567,52.6685558 L264.747567,51.8600714 L265.135347,51.8600714 L265.135347,50.4260175 L266.108455,50.4260175 L266.108455,51.8600714 L266.814507,51.8600714 L266.814507,52.6685558 L266.108455,52.6685558 L266.108455,56.0780921 C266.108455,56.3963643 266.262103,56.4987967 266.507209,56.4987967 C266.612932,56.5005146 266.717771,56.4792972 266.814507,56.4366056 L266.814507,57.2377735 C266.626078,57.3286837 266.420078,57.3773746 266.210887,57.3804472 C265.625559,57.3804472 265.135347,57.1755824 265.135347,56.3853894 Z" id="Path" fill="#FFFFFF" fill-rule="nonzero"></path>
                        <path d="M267.418126,57.1499743 L267.418126,56.1768663 C267.736801,56.380398 268.09906,56.5057471 268.475375,56.5426963 C268.627181,56.5559946 268.77717,56.5019669 268.885627,56.3949193 C268.994083,56.2878716 269.050066,56.1386016 269.038753,55.9866346 C269.038753,55.7122621 268.903396,55.4744725 268.350993,54.9440189 C267.725423,54.3294244 267.38886,53.8465287 267.38886,53.2136427 L267.38886,53.1916928 C267.373705,52.8052146 267.525506,52.4308877 267.805568,52.1641287 C268.08563,51.8973697 268.466896,51.7639506 268.85218,51.7978803 C269.155724,51.7901312 269.457814,51.8423443 269.741147,51.9515289 L269.741147,52.913662 C269.479886,52.7716904 269.189521,52.6915895 268.892421,52.6795307 C268.75202,52.6615688 268.610707,52.7051719 268.504837,52.799123 C268.398966,52.893074 268.338874,53.0282015 268.340018,53.169743 C268.340018,53.4477739 268.460742,53.6306889 269.071678,54.2050422 C269.766755,54.8928027 270.000887,55.3317988 270.000887,55.9463933 L270.000887,55.9683431 C270.019916,56.3619655 269.871865,56.7453257 269.593207,57.0239838 C269.314549,57.3026419 268.931189,57.4506924 268.537566,57.4316634 C268.148868,57.4167931 267.767569,57.3208453 267.418126,57.1499743 L267.418126,57.1499743 Z" id="Path" fill="#FFFFFF" fill-rule="nonzero"></path>
                        <g id="Group" transform="translate(0.357766, 0.355278)" fill-rule="nonzero">
                            <polygon id="Path" fill="#FFFFFF" points="86.13178 50.8060576 84.2660466 50.8060576 84.2660466 49.7927083 87.104888 49.7927083 87.104888 50.5243685 85.6708341 56.9556612 84.6757763 56.9556612"></polygon>
                            <path d="M88.0011717,56.8715203 L88.0011717,55.8764625 C88.256045,56.0155461 88.5412652,56.0896783 88.831606,56.0923022 C89.4571754,56.0923022 89.8559302,55.5289239 89.8559302,54.6582483 L89.8559302,54.5997155 C89.8559302,53.718065 89.4901001,53.4107678 89.0364708,53.4107678 C88.8464591,53.4098016 88.6583293,53.4484243 88.4840674,53.5241751 L87.9719053,53.1839531 L88.1438454,49.8036832 L90.583932,49.8036832 L90.583932,50.7658163 L88.9120886,50.7658163 L88.8096562,52.5510671 C88.9794423,52.5008726 89.1557508,52.476214 89.3327932,52.4779011 C90.1120112,52.4779011 90.850988,53.0522543 90.850988,54.5887406 L90.850988,54.6692232 C90.850988,56.1654682 90.0498201,57.0654102 88.9230635,57.0654102 C88.6061813,57.0604484 88.2932065,56.9946243 88.0011717,56.8715203 Z" id="Path" fill="#FFFFFF"></path>
                            <path d="M93.6495881,51.5047931 L94.6226961,51.5047931 L94.6226961,52.1888953 C94.8495107,51.7389243 95.1458331,51.4133356 95.6250705,51.4133356 C96.0710022,51.4237042 96.4601614,51.7185217 96.5908619,52.1449957 C96.7795848,51.7297355 97.1787878,51.4495931 97.6334776,51.4133356 C98.2700219,51.4133356 98.8004755,51.9328143 98.8004755,52.9278721 L98.8004755,56.9520029 L97.8273675,56.9520029 L97.8273675,53.1363952 C97.8273675,52.5839918 97.6334776,52.2876695 97.2969139,52.2876695 C96.9603502,52.2876695 96.7115858,52.6132582 96.7115858,53.158345 L96.7115858,56.9666361 L95.7384778,56.9666361 L95.7384778,53.1363952 C95.7384778,52.5839918 95.5445878,52.2876695 95.2080242,52.2876695 C94.8714605,52.2876695 94.6226961,52.6132582 94.6226961,53.158345 L94.6226961,56.9666361 L93.6495881,56.9666361 L93.6495881,51.5047931 Z" id="Path" fill="#FFFFFF"></path>
                            <path d="M100.011373,58.1299757 L100.011373,57.2190589 C100.354892,57.3552347 100.718004,57.4355146 101.086913,57.4568484 C101.34513,57.4967732 101.606965,57.4117309 101.792441,57.2276979 C101.977918,57.0436649 102.065003,56.782502 102.027097,56.5239817 L102.027097,55.7667135 C101.844182,56.1837597 101.547859,56.6447056 101.013747,56.6447056 C100.336962,56.6447056 99.7845584,55.9130455 99.7845584,54.0838951 L99.7845584,54.0107291 C99.7845584,52.1559706 100.336962,51.4499186 101.013747,51.4499186 C101.547859,51.4499186 101.844182,51.8998896 102.027097,52.3205942 L102.027097,51.5413761 L103.000205,51.5413761 L103.000205,56.6227558 C103.032129,57.0932021 102.869448,57.5561148 102.550234,57.9031611 C102.171041,58.2297261 101.677316,58.3916678 101.178371,58.3531321 C100.780086,58.3403204 100.386285,58.265017 100.011373,58.1299757 Z M102.049047,54.0546287 L102.049047,54.0034125 C102.049047,52.9059223 101.741749,52.3352274 101.383236,52.3352274 C101.024722,52.3352274 100.757666,52.9059223 100.757666,54.0143874 L100.757666,54.0436538 C100.757666,55.141144 101.024722,55.7228139 101.383236,55.7228139 C101.741749,55.7228139 102.049047,55.1521189 102.049047,54.0546287 Z" id="Shape" fill="#FFFFFF"></path>
                            <path d="M105.839046,54.3729009 L105.839046,54.1168198 C105.839046,52.3242525 106.596314,51.4316271 107.540156,51.4316271 C107.793378,51.4167197 108.045982,51.4697666 108.271816,51.5852757 L108.271816,52.5913084 C108.087291,52.4628461 107.870728,52.3881258 107.646247,52.3754687 C107.214567,52.3754687 106.826787,52.8547061 106.826787,54.09487 L106.826787,54.3911924 C106.826787,55.6313563 107.214567,56.114252 107.675513,56.114252 C107.894337,56.0940914 108.10207,56.0087043 108.271816,55.8691459 L108.271816,56.8422539 C108.052769,56.9804533 107.799155,57.0540015 107.540156,57.0544353 C106.545098,57.0544353 105.839046,56.1764431 105.839046,54.3729009 Z" id="Path" fill="#FFFFFF"></path>
                            <path d="M108.879094,55.4264915 L108.879094,55.2728429 C108.879094,54.1168198 109.38394,53.5424666 110.159499,53.5424666 C110.43226,53.5446974 110.700129,53.6151232 110.938717,53.7473314 L110.938717,53.315652 C110.938717,52.6937408 110.65337,52.3535189 110.100967,52.3535189 C109.770725,52.3643555 109.447557,52.4520366 109.157125,52.6095999 L109.157125,51.6730749 C109.496514,51.5243216 109.862154,51.4447264 110.232665,51.4389437 C110.680906,51.4085753 111.12177,51.5647974 111.450879,51.8706232 C111.781399,52.2481014 111.947354,52.7420156 111.911825,53.2424859 L111.911825,56.9593195 L110.927742,56.9593195 L110.927742,56.3191169 C110.797824,56.7399592 110.416671,57.033154 109.976584,57.050793 C109.332723,57.0544353 108.879094,56.4288659 108.879094,55.4264915 Z M110.938717,55.4484413 L110.938717,54.4643584 C110.772429,54.3804629 110.590579,54.3318865 110.404605,54.3216847 C110.038775,54.3216847 109.822936,54.6289819 109.822936,55.2216266 L109.822936,55.3313757 C109.822936,55.9349953 110.0278,56.2203428 110.346073,56.2203428 C110.664345,56.2203428 110.938717,55.9093872 110.938717,55.4484413 Z" id="Shape" fill="#FFFFFF"></path>
                            <path d="M112.771526,51.5047931 L113.744634,51.5047931 L113.744634,52.2913278 C113.931207,51.8815981 114.22753,51.4133356 114.761642,51.4133356 C115.434769,51.4133356 115.998147,52.1449957 115.998147,54.0326789 L115.998147,54.435092 C115.998147,56.3191169 115.434769,57.0544353 114.761642,57.0544353 C114.22753,57.0544353 113.942182,56.6044643 113.744634,56.1837597 L113.744634,58.2945993 L112.771526,58.2945993 L112.771526,51.5047931 Z M115.025039,54.3911924 L115.025039,54.0765785 C115.025039,52.9498219 114.779933,52.3352274 114.39947,52.3352274 C114.019007,52.3352274 113.733659,52.9498219 113.733659,54.0656036 L113.733659,54.4021673 C113.733659,55.517949 114.022665,56.1325435 114.39947,56.1325435 C114.776275,56.1325435 115.025039,55.5106324 115.025039,54.3911924 Z" id="Shape" fill="#FFFFFF"></path>
                            <path d="M116.78834,56.794696 L116.78834,55.821588 C117.105753,56.0249535 117.466789,56.1503131 117.841931,56.187418 C117.993737,56.2007164 118.143726,56.1466886 118.252182,56.039641 C118.360638,55.9325934 118.416622,55.7833233 118.405309,55.6313563 C118.405309,55.3569838 118.27361,55.1191942 117.721207,54.5887406 C117.095638,53.9741461 116.755416,53.4912504 116.755416,52.8583644 L116.755416,52.8364146 C116.740261,52.4499364 116.892062,52.0756094 117.172124,51.8088504 C117.452186,51.5420914 117.833452,51.4086724 118.218736,51.442602 C118.523442,51.4352283 118.826657,51.487421 119.111361,51.5962506 L119.111361,52.5583837 C118.848806,52.4163591 118.557242,52.336273 118.258977,52.3242525 C118.118575,52.3062905 117.977262,52.3498936 117.871392,52.4438447 C117.765522,52.5377958 117.705429,52.6729232 117.706574,52.8144648 C117.706574,53.0924956 117.830956,53.2754107 118.438234,53.8497639 C119.133311,54.5375244 119.371101,54.9765205 119.371101,55.591115 L119.371101,55.6130648 C119.39013,56.0066872 119.242079,56.3900474 118.963421,56.6687055 C118.684763,56.9473636 118.301403,57.0954141 117.90778,57.0763851 C117.519005,57.0620547 117.137596,56.9660792 116.78834,56.794696 Z" id="Path" fill="#FFFFFF"></path>
                            <path d="M119.963745,55.5508737 L119.963745,51.5047931 L120.925878,51.5047931 L120.925878,55.3313757 C120.925878,55.8837791 121.130743,56.1801014 121.467307,56.1801014 C121.803871,56.1801014 122.070927,55.8545127 122.070927,55.3094259 L122.070927,51.5047931 L123.044035,51.5047931 L123.044035,56.9629778 L122.070927,56.9629778 L122.070927,56.2679007 C121.926354,56.7130468 121.524674,57.0248199 121.057577,57.0544353 C120.3625,57.0544353 119.963745,56.4617906 119.963745,55.5508737 Z" id="Path" fill="#FFFFFF"></path>
                            <polygon id="Path" fill="#FFFFFF" points="124.192741 49.7305172 125.165849 49.7305172 125.165849 56.9629778 124.192741 56.9629778"></polygon>
                            <path d="M125.934092,54.361926 L125.934092,54.1460862 C125.934092,52.3535189 126.665752,51.4206522 127.543744,51.4206522 C128.421737,51.4206522 129.047306,52.3754687 129.047306,54.1460862 L129.047306,54.6801981 L126.9072,54.6801981 C126.958416,55.7228139 127.390096,56.1435184 127.891283,56.1435184 C128.240259,56.131052 128.575053,56.0022851 128.842441,55.7776884 L128.926582,56.6886052 C128.587112,56.9274543 128.181977,57.0552572 127.766901,57.0544393 C126.77916,57.0544393 125.934092,56.1435184 125.934092,54.361926 Z M128.129073,53.9009801 C128.129073,52.8876308 127.913233,52.2913278 127.547403,52.2913278 C127.181573,52.2913278 126.932808,52.7961733 126.899884,53.9009801 L128.129073,53.9009801 Z" id="Shape" fill="#FFFFFF"></path>
                            <path d="M129.764333,56.794696 L129.764333,55.821588 C130.082763,56.0256238 130.445147,56.151016 130.821582,56.187418 C130.973388,56.2007164 131.123377,56.1466886 131.231833,56.039641 C131.340289,55.9325934 131.396273,55.7833233 131.38496,55.6313563 C131.38496,55.3569838 131.249603,55.1191942 130.6972,54.5887406 C130.07163,53.9741461 129.735067,53.4912504 129.735067,52.8583644 L129.735067,52.8364146 C129.719912,52.4499364 129.871713,52.0756094 130.151775,51.8088504 C130.431837,51.5420914 130.813103,51.4086724 131.198387,51.442602 C131.503142,51.4345621 131.806485,51.4867769 132.091012,51.5962506 L132.091012,52.5583837 C131.829751,52.4164121 131.539386,52.3363112 131.242287,52.3242525 C131.101547,52.3063874 130.959921,52.3499092 130.853501,52.4437266 C130.747081,52.537544 130.686146,52.6725956 130.686225,52.8144648 C130.686225,53.0924956 130.810607,53.2754107 131.417885,53.8497639 C132.11662,54.5375244 132.350752,54.9765205 132.350752,55.591115 L132.350752,55.6130648 C132.369781,56.0066872 132.22173,56.3900474 131.943072,56.6687055 C131.664414,56.9473636 131.281054,57.0954141 130.887431,57.0763851 C130.49743,57.0624562 130.114744,56.9664732 129.764333,56.794696 Z" id="Path" fill="#FFFFFF"></path>
                            <path d="M10.7890762,6.14186384 C11.3062302,6.14395092 11.8211197,6.210309 12.3219129,6.33941208 C12.3219129,6.28453757 12.3219129,6.22966306 12.3219129,6.17113025 C12.3272491,2.96592462 9.87398498,0.292098702 6.68016169,0.0221644963 C3.4863384,-0.247769709 0.619109128,1.976381 0.0864285415,5.13701749 C-0.446252045,8.29765399 1.53360078,11.3387118 4.6394726,12.1305022 C4.73056637,8.79886313 7.45619312,6.14457938 10.7890762,6.14186384 Z" id="Path" fill="#FFFFFF"></path>
                            <path d="M4.78946293,13.68528 C1.97130603,15.2001339 0.778151462,18.6175095 2.04102326,21.5572282 C3.30389505,24.4969468 6.60397332,25.9840775 9.64277604,24.9828439 C12.6815788,23.9816103 14.4513148,20.8240624 13.7193751,17.7094108 C12.0294902,18.6228548 10.0102329,18.6957478 8.25888374,17.9065286 C6.50753457,17.1173094 5.22456335,15.5563167 4.78946293,13.68528 Z" id="Path" fill="#FFFFFF"></path>
                            <path d="M18.4934575,4.9419412 C16.7431591,4.94296838 15.0761254,5.6893418 13.9096067,6.99424791 C15.503155,7.92771935 16.5924572,9.52830917 16.876158,11.3532144 C17.1598588,13.1781196 16.6078802,15.0338639 15.372927,16.4070557 C17.6093581,17.7213166 20.429629,17.4928805 22.4253893,15.8358211 C24.4211497,14.1787616 25.1642416,11.4485738 24.2835895,9.00862354 C23.4029375,6.56867324 21.0874709,4.94241206 18.4934575,4.9419412 Z" id="Path" fill="#FFFFFF"></path>
                            <path d="M12.3219042,6.33941208 C11.8211197,6.210309 11.3062302,6.14395092 10.7890762,6.14186384 C7.45477229,6.14259934 4.7269479,8.79744389 4.6358143,12.1305022 C5.13605192,12.2628361 5.65119822,12.3304568 6.16864231,12.3317087 C9.50354513,12.3289924 12.2308093,9.67307162 12.3219042,6.33941208 L12.3219042,6.33941208 Z" id="Path" fill="#E7E7E7"></path>
                            <path d="M7.72342013,12.9426119 C6.70220057,12.9392963 5.69627978,13.1907765 4.79677953,13.6743051 C5.23187995,15.5453418 6.51485117,17.1063345 8.26620034,17.8955537 C10.0175495,18.6847729 12.0368068,18.6118799 13.7266917,17.6984359 C13.0750352,14.9100144 10.5869733,12.9389721 7.72342013,12.9426119 Z" id="Path" fill="#E7E7E7"></path>
                            <path d="M13.9059484,6.99424791 C12.6709952,8.36743976 12.1190166,10.223184 12.4027174,12.0480892 C12.6864181,13.8729945 13.7757203,15.4735843 15.3692687,16.4070557 C16.6042219,15.0338639 17.1562005,13.1781196 16.8724997,11.3532144 C16.5887989,9.52830917 15.4994967,7.92771935 13.9059484,6.99424791 L13.9059484,6.99424791 Z" id="Path" fill="#E7E7E7"></path>
                            <path d="M38.5226541,30.8500271 C41.2956461,30.2317743 43.1394297,28.0587436 43.143088,25.2455103 C43.143088,21.7518331 40.5822774,19.3922291 36.7300867,19.3922291 L31.1438615,19.3922291 L31.1438615,37.9142058 L34.5168148,37.9142058 L34.5168148,31.4280386 L40.6993431,37.928839 L45.455134,37.928839 L38.5226541,30.8500271 Z M35.8411197,28.0294772 L34.5168148,28.0294772 L34.5168148,22.5091014 L36.6861871,22.5091014 C38.6141116,22.5091014 39.7664764,23.5407422 39.7664764,25.2711184 C39.7664764,25.9515624 39.7664764,28.0294772 35.8411197,28.0294772 Z" id="Shape" fill="#FFFFFF"></path>
                            <path d="M55.186214,19.3995457 L52.4717549,19.3995457 L44.9393136,37.928839 L48.6195642,37.928839 L50.1962918,33.9047082 L57.4653354,33.9047082 L59.0384047,37.928839 L62.7223135,37.928839 L55.186214,19.3995457 Z M56.2544378,30.787836 L51.4181642,30.787836 L53.8399593,24.5101919 L56.2544378,30.787836 Z" id="Shape" fill="#FFFFFF"></path>
                            <path d="M25.9783409,28.0624019 C26.9086274,27.2415125 27.4326914,26.0543471 27.4123947,24.8138308 C27.4533773,23.125691 26.6596098,21.5258388 25.2905803,20.5372773 C24.1930901,19.7580592 22.9200014,19.4214955 21.0396348,19.4214955 L15.932647,19.4214955 L15.932647,37.9727386 L22.8102524,37.9727386 C26.1283312,37.9727386 28.6342672,35.605818 28.6342672,32.466996 C28.6232923,30.4549306 27.5989681,28.7977204 25.9783409,28.0624019 Z M21.4493645,26.9868615 L19.301942,26.9868615 L19.301942,22.5273929 L21.0140267,22.5273929 C22.111517,22.5273929 22.890735,22.7432326 23.3553392,23.1712538 C23.8121302,23.6120072 24.0584634,24.2271744 24.0321249,24.8613888 C24.0321249,26.3283674 22.7334281,26.9868615 21.4493645,26.9868615 Z M25.2430224,32.4926041 C25.2430224,33.51327 24.910117,34.8668413 22.0420092,34.8668413 L19.301942,34.8668413 L19.301942,30.0891005 L22.0420092,30.0891005 C24.8259761,30.0891005 25.2430224,31.5963204 25.2430224,32.4926041 Z" id="Shape" fill="#FFFFFF"></path>
                            <polygon id="Path" fill="#FFFFFF" points="74.9959125 22.516418 74.9959125 19.3885708 64.0356435 19.3885708 64.0356435 37.9251807 67.4159134 37.9251807 67.4159134 30.0964171 74.4654589 30.0964171 74.4654589 26.9539368 67.4159134 26.9539368 67.4159134 22.516418"></polygon>
                            <path d="M100.16868,38.2654027 C98.8760978,38.2990158 97.5902342,38.0687304 96.3896553,37.5886171 C95.3842856,37.1664075 94.4975579,36.5045017 93.806895,35.6606926 C93.1039346,34.7669148 92.5977869,33.7346728 92.3216249,32.6316195 C91.6879503,30.022148 91.6879503,27.2989201 92.3216249,24.6894486 C92.5977217,23.5852599 93.1038505,22.5518098 93.806895,21.6567173 C94.4977779,20.814027 95.3845278,20.1533606 96.3896553,19.7324511 C98.8294416,18.8299679 101.511577,18.8299679 103.951363,19.7324511 C104.949063,20.1555352 105.828191,20.8161372 106.512173,21.6567173 C107.217464,22.5508976 107.724953,23.5845799 108.001102,24.6894486 C108.634776,27.2989201 108.634776,30.022148 108.001102,32.6316195 C107.725311,33.7355084 107.217761,34.7680684 106.512173,35.6606926 C105.823683,36.5052171 104.937937,37.1673278 103.933071,37.5886171 C102.736875,38.0661856 101.456312,38.2964133 100.16868,38.2654027 L100.16868,38.2654027 Z M100.16868,22.1432713 C99.320796,22.110267 98.4781452,22.2901163 97.7176185,22.6664083 C97.1023327,23.0015683 96.5833688,23.4890417 96.2103986,24.0821707 C95.8215179,24.7145862 95.55935,25.4165998 95.4384971,26.1491106 C95.2916253,26.9775014 95.219389,27.8174012 95.2226574,28.6587049 C95.2209776,29.4961476 95.2919711,30.3321566 95.4348388,31.1573243 C95.5572469,31.8934137 95.8205833,32.5989567 96.2103986,33.2352392 C96.5809055,33.8303924 97.1004664,34.3184265 97.7176185,34.6510016 C99.2759741,35.3483957 101.057728,35.3483957 102.616083,34.6510016 C103.232999,34.320783 103.750741,33.8320856 104.115986,33.2352392 C104.497837,32.5965171 104.755978,31.891593 104.876913,31.1573243 C105.164713,29.5003237 105.164713,27.8061113 104.876913,26.1491106 C104.754737,25.4186141 104.496633,24.7175135 104.115986,24.0821707 C103.748698,23.486985 103.231459,22.9987618 102.616083,22.6664083 C101.857016,22.2896767 101.015431,22.1097863 100.16868,22.1432713 L100.16868,22.1432713 Z" id="Shape" fill="#FFFFFF"></path>
                            <polygon id="Path" fill="#FFFFFF" points="117.717549 33.6596021 119.158919 29.3793902 122.557481 19.403204 126.160907 19.403204 119.323543 37.8703062 116.111555 37.8703062 109.274191 19.403204 112.877617 19.403204 116.27252 29.3793902"></polygon>
                            <polygon id="Path" fill="#FFFFFF" points="132.215395 37.9324973 128.882683 37.9324973 128.882683 19.3849125 132.211736 19.3849125"></polygon>
                            <path d="M135.559081,19.1910226 C136.31017,19.1970907 136.914323,19.8105259 136.90894,20.5616197 C136.903557,21.3127135 136.290673,21.9174258 135.539574,21.9127545 C134.788476,21.9080288 134.183205,21.2956963 134.187199,20.5445939 C134.187199,20.1824127 134.332302,19.8353252 134.590115,19.5809489 C134.847929,19.3265727 135.196933,19.1861283 135.559081,19.1910226 Z M135.559081,21.7152501 C136.031985,21.7301178 136.466785,21.4570956 136.658833,21.0246878 C136.85088,20.5922799 136.761914,20.0866347 136.433809,19.7457455 C136.105703,19.4048563 135.603825,19.2966383 135.164396,19.4720267 C134.724967,19.6474151 134.435534,20.0714675 134.432325,20.5445939 C134.419325,20.8512458 134.532393,21.1498578 134.745238,21.3709949 C134.958082,21.592132 135.252157,21.7165253 135.559081,21.7152501 L135.559081,21.7152501 Z M135.028628,19.7544009 L135.643222,19.7544009 C136.009052,19.7544009 136.199284,19.9043912 136.199284,20.2116885 C136.205405,20.3253891 136.163936,20.4365089 136.084821,20.5183998 C136.005706,20.6002906 135.896082,20.645566 135.782238,20.643368 L136.235867,21.3457617 L135.968811,21.3457617 L135.537132,20.6616595 L135.273734,20.6616595 L135.273734,21.3457617 L135.028628,21.3457617 L135.028628,19.7544009 Z M135.273734,20.460453 L135.533473,20.460453 C135.752971,20.460453 135.95052,20.460453 135.95052,20.2007136 C135.95052,19.9409743 135.771263,19.9556075 135.602981,19.9556075 L135.273734,19.9556075 L135.273734,20.460453 Z" id="Shape" fill="#FFFFFF"></path>
                            <polygon id="Path" fill="#FFFFFF" points="85.1659886 37.9617637 81.8332766 37.9617637 81.8332766 22.4834933 76.4299664 22.4834933 76.4299664 19.3849125 90.5619822 19.3849125 90.5619822 22.4834933 85.1659886 22.4834933"></polygon>
                            <path d="M19.4153493,60.0103423 C18.255668,58.9128521 15.7570486,56.6264141 15.7570486,52.2510864 C15.7570486,47.7916178 18.2995676,45.5015216 19.4153493,44.5064638 L20.1214014,45.263732 C19.1629266,46.2587898 17.1106198,48.413529 17.1106198,52.2840111 C17.1037392,53.610894 17.3793392,54.9240471 17.9191043,56.1362018 C18.4148197,57.3269698 19.1638224,58.395547 20.1140848,59.2677073 L19.4153493,60.0103423 Z" id="Path" fill="#FFFFFF"></path>
                            <path d="M19.9201948,52.7376404 C19.9201948,53.4949087 19.9531195,54.6582483 20.4250403,55.3972251 C20.6893323,55.828599 21.1490332,56.1022305 21.6542294,56.1288852 C22.1737081,56.1288852 23.0663335,55.7411054 23.304123,54.2448603 L24.4016132,54.4607001 C24.0833411,55.9606034 23.304123,57.1056515 21.7420286,57.1056515 C21.0498941,57.1040706 20.3857182,56.8323623 19.8909284,56.3483833 C19.0495192,55.4557579 18.7495386,54.0070708 18.7495386,52.2913278 C18.7495386,50.9597063 18.9178204,50.019523 19.338525,49.2768879 C19.7925051,48.4902057 20.6253869,47.9988055 21.5335054,47.9818495 C22.4088882,47.9878646 23.2237437,48.4295876 23.7065361,49.1598223 C24.3430804,50.1365886 24.3796634,51.4645518 24.3796634,52.744957 L19.9201948,52.7376404 Z M23.304123,51.7279494 C23.2927418,51.1703208 23.2128801,50.6162038 23.0663335,50.0780558 C22.8468354,49.4561447 22.4261308,48.900083 21.6030132,48.900083 C21.0049727,48.8784272 20.4582238,49.2360861 20.238467,49.7927083 C20.0068902,50.4107811 19.8987594,51.068266 19.9201948,51.7279494 L23.304123,51.7279494 Z" id="Shape" fill="#FFFFFF"></path>
                            <path d="M30.335377,56.9629778 L29.2086204,56.9629778 L29.2086204,50.3999863 C29.2086204,50.2317044 29.2086204,48.9842239 28.2318541,48.9842239 C27.6611592,48.9842239 27.0538813,49.42322 26.1795474,50.615826 L26.1795474,56.9629778 L25.0527908,56.9629778 L25.0527908,48.10989 L26.1758891,48.10989 L26.1758891,49.642718 L26.2088138,49.642718 C26.9148658,48.6147355 27.7416418,47.9745329 28.583051,47.9745329 C30.2329446,47.9745329 30.3317187,50.0451311 30.3317187,50.8353241 L30.335377,56.9629778 Z" id="Path" fill="#FFFFFF"></path>
                            <path d="M34.9558109,50.8536156 C34.9558109,50.3999863 34.9228862,48.900083 33.6936971,48.900083 C32.4645081,48.900083 32.1279444,50.4146195 32.1279444,52.6534995 C32.1279444,54.5375244 32.3840255,55.1960185 32.8193632,55.6496478 C33.053961,55.9196426 33.3877962,56.0832615 33.7449133,56.1032771 C34.7546043,56.1032771 34.9558109,55.1448023 35.1240927,54.1534028 L36.2545076,54.3363179 C36.1703667,54.9253043 35.8484363,57.0983349 33.6936971,57.0983349 C33.0693689,57.0911682 32.4718526,56.8435134 32.025512,56.4069161 C31.4218924,55.7667135 30.9828963,54.7570225 30.9828963,52.671791 C30.956486,51.7374863 31.0799958,50.8049872 31.3487263,49.909774 C31.7145564,48.8671583 32.4096336,47.9745329 33.7705214,47.9745329 C34.6783562,47.9662611 35.5022048,48.5044319 35.8594112,49.339079 C36.0362043,49.8236384 36.115764,50.3382906 36.0935424,50.8536156 L34.9558109,50.8536156 Z" id="Path" fill="#FFFFFF"></path>
                            <path d="M37.9592758,56.3227752 C37.30444,55.6167231 36.9166601,54.5887406 36.9166601,52.4852177 C36.9166601,50.6011928 37.220299,49.4561447 37.9592758,48.6988764 C38.4278313,48.2189861 39.0739528,47.9541822 39.7445266,47.9672163 C40.4211786,47.9650318 41.0739822,48.217014 41.5736769,48.6732683 C42.4809355,49.532969 42.6492174,50.7950827 42.6492174,52.4120517 C42.6492174,54.0290206 42.5504432,56.7361632 40.0884068,57.0398021 C39.9601963,57.0640498 39.8307364,57.0811483 39.700627,57.0910183 C39.0382511,57.0898746 38.4066607,56.8112317 37.9592758,56.3227752 L37.9592758,56.3227752 Z M38.2629148,50.1804882 C38.0760926,51.0366187 38.002298,51.9135446 38.0434167,52.7888567 C38.0121703,53.4681805 38.0799494,54.1484359 38.2446233,54.8082387 C38.4641213,55.5142907 38.9031174,56.1215686 39.7920845,56.1215686 C40.6188604,56.1215686 41.039565,55.5984316 41.2736963,54.8594549 C41.4758254,53.9881113 41.5607163,53.0936816 41.526119,52.1998702 C41.5496116,51.45887 41.4595501,50.7186391 41.2590631,50.0048898 C41.0212735,49.3646872 40.6005689,48.9073996 39.8286675,48.9073996 C38.9360421,48.900083 38.4824128,49.42322 38.2482816,50.1804882 L38.2629148,50.1804882 Z" id="Shape" fill="#FFFFFF"></path>
                            <path d="M47.2477014,49.1378725 C45.9343714,49.1378725 45.2795356,49.5732103 44.9612634,50.0634226 C44.7267304,50.453141 44.614581,50.9042877 44.639333,51.3584611 L44.639333,56.9629778 L43.5125763,56.9629778 L43.5125763,48.10989 L44.639333,48.10989 L44.639333,49.5402856 L44.6722577,49.5402856 C45.3636765,48.4427954 45.8868135,48.10989 47.2330682,47.9745329 L47.2477014,49.1378725 Z" id="Path" fill="#FFFFFF"></path>
                            <path d="M52.5668707,55.0789529 C52.5668707,56.271559 52.7680772,56.7105551 52.8851428,56.9629778 L51.7583862,56.9629778 C51.5920061,56.6303038 51.4843329,56.271393 51.440114,55.9020706 C50.7084539,56.5569064 49.9767937,57.0983349 49.0988016,57.0983349 C48.0378944,57.0983349 47.1964852,56.1727848 47.1964852,54.8594549 C47.1964852,53.3449184 48.3232418,51.9328143 51.440114,51.2560286 L51.440114,50.5755847 C51.440114,49.6646678 51.1181836,49.0244652 50.1780003,49.0244652 C48.9305197,49.0244652 48.7439464,50.0524477 48.6451723,50.5755847 L47.5476821,50.5755847 C47.6647477,49.9024574 48.0013113,47.9818495 50.2255582,47.9818495 C51.890085,47.9818495 52.5815039,49.192747 52.5815039,50.5755847 L52.5668707,55.0789529 Z M51.440114,52.0645131 C50.7084539,52.2327949 48.2903171,52.8217814 48.2903171,54.7058062 C48.2903171,55.5472154 48.7951626,56.1215686 49.4536567,56.1215686 C50.1121509,56.1215686 50.6828458,55.6825725 51.440114,54.9253043 L51.440114,52.0645131 Z" id="Shape" fill="#FFFFFF"></path>
                            <path d="M54.2826137,46.8148515 C54.2826137,45.6844366 54.6008859,44.290624 56.1117641,44.290624 C56.4407364,44.3040939 56.7677382,44.3481841 57.0885304,44.4223228 L57.0885304,45.6185872 C56.7713234,45.5216005 56.4431385,45.4650593 56.1117641,45.4503054 C55.489853,45.4503054 55.4057121,46.0210003 55.4057121,46.9831334 L55.4057121,48.10989 L56.9056154,48.10989 L56.9056154,49.0866563 L55.4093704,49.0866563 L55.4093704,56.9629778 L54.2826137,56.9629778 L54.2826137,49.0866563 L52.9509923,49.0866563 L52.9509923,48.10989 L54.2826137,48.10989 L54.2826137,46.8148515 Z" id="Path" fill="#FFFFFF"></path>
                            <path d="M58.0835882,52.7376404 C58.0835882,53.4949087 58.1201712,54.6582483 58.5884337,55.3972251 C58.8527257,55.828599 59.3124266,56.1022305 59.8176228,56.1288852 C60.3407598,56.1288852 61.2333851,55.7411054 61.4675164,54.2448603 L62.5650066,54.4607001 C62.2430761,55.9606034 61.4675164,57.1056519 59.905422,57.1056519 C59.2129028,57.1060227 58.5480179,56.8340243 58.0543218,56.3483833 C57.2129126,55.4557579 56.9092737,54.0070708 56.9092737,52.2913278 C56.9092737,50.9597063 57.0775555,50.019523 57.4982601,49.2768879 C57.9533012,48.4912574 58.7855294,48.0002427 59.6932405,47.9818495 C60.5673238,47.9890793 61.3805413,48.4306578 61.8626129,49.1598223 C62.5028155,50.1365886 62.5357402,51.4645518 62.5357402,52.744957 L58.0835882,52.7376404 Z M61.4675164,51.7279494 C61.4577743,51.1704369 61.379134,50.616268 61.2333851,50.0780558 C61.0138871,49.4561447 60.5931825,48.900083 59.7700648,48.900083 C59.1720243,48.8784272 58.6252754,49.2360861 58.4055187,49.7927083 C58.1739419,50.4107811 58.0658111,51.068266 58.0872465,51.7279494 L61.4675164,51.7279494 Z" id="Shape" fill="#FFFFFF"></path>
                            <path d="M68.6707106,56.9629778 L67.5439539,56.9629778 L67.5439539,50.3999863 C67.5439539,50.2317044 67.5439539,48.9842239 66.5671876,48.9842239 C65.9928344,48.9842239 65.3892148,49.42322 64.5148809,50.615826 L64.5148809,56.9629778 L63.384466,56.9629778 L63.384466,48.10989 L64.5148809,48.10989 L64.5148809,49.642718 L64.5478056,49.642718 C65.2538577,48.6147355 66.0769753,47.9745329 66.9183845,47.9745329 C68.5682781,47.9745329 68.6707106,50.0451311 68.6707106,50.8353241 L68.6707106,56.9629778 Z" id="Path" fill="#FFFFFF"></path>
                            <path d="M70.9571485,44.7442533 L70.9571485,45.8710099 L69.8303919,45.8710099 L69.8303919,44.7442533 L70.9571485,44.7442533 Z M70.9571485,48.10989 L70.9571485,56.9629778 L69.8303919,56.9629778 L69.8303919,48.10989 L70.9571485,48.10989 Z" id="Shape" fill="#FFFFFF"></path>
                            <path d="M73.4667428,44.4223228 L73.4667428,49.2037219 L73.4996675,49.2037219 C73.7008741,48.900083 74.3740014,47.9745329 75.5007581,47.9745329 C76.0917958,47.9917127 76.6557611,48.2261555 77.0848023,48.633027 C77.7067134,49.2549381 78.0432771,50.3158453 78.0432771,52.6205748 C78.0432771,54.6728815 77.7396381,55.7337888 77.0665108,56.4398408 C76.6666389,56.848133 76.1232929,57.0843704 75.5519743,57.0983349 C74.3557099,57.0983349 73.6679494,56.0191362 73.481376,55.700864 L73.4484513,55.700864 C73.4209241,56.1433728 73.2960058,56.5743408 73.0826213,56.9629778 L71.985131,56.9629778 C72.077381,56.7267251 72.1448125,56.4815197 72.1863376,56.2313177 C72.2970212,55.740231 72.3534532,55.2384766 72.3546194,54.7350726 L72.3546194,44.4223228 L73.4667428,44.4223228 Z M73.4667428,54.958229 C73.7008741,55.261868 74.3557099,56.0886439 75.2337021,56.0886439 C75.5901985,56.0620667 75.9246347,55.9059097 76.1738854,55.6496478 C76.6787309,55.1448023 76.8799374,54.2851017 76.8799374,51.8120904 C76.8799374,50.4987604 76.7482386,48.815942 75.4166171,48.815942 C74.6227659,48.815942 74.052071,49.4049285 73.481376,50.0780558 L73.4667428,54.958229 Z" id="Shape" fill="#FFFFFF"></path>
                            <path d="M77.5530648,44.5064638 C78.7164044,45.5856625 81.2113655,47.890392 81.2113655,52.2657196 C81.2113655,56.7251883 78.650555,59.0152845 77.5530648,60.0103423 L76.8470127,59.2530741 C77.8054875,58.2580163 79.8577942,56.1032771 79.8577942,52.2327949 C79.864049,50.9063559 79.5897755,49.593583 79.0529681,48.3806043 C78.5520107,47.1927278 77.8037439,46.1252004 76.8579876,45.2490988 L77.5530648,44.5064638 Z" id="Path" fill="#FFFFFF"></path>
                        </g>
                        <polygon id="Path" fill="#FFFFFF" fill-rule="nonzero" points="168.991545 38.2329011 165.549084 28.9444755 164.524759 26.0178349 164.550368 31.139456 164.550368 38.2365594 161.287163 38.2365594 161.287163 19.6560499 165.183254 19.6560499 169.017153 29.7785681 170.279267 33.2795619 171.54138 29.7785681 175.375279 19.6560499 179.256737 19.6560499 179.256737 38.2329011 175.993532 38.2329011 175.993532 31.1357976 176.01914 26.0141766 174.994816 28.9408172 171.566988 38.2292428"></polygon>
                        <polygon id="Path" fill="#FFFFFF" fill-rule="nonzero" points="196.044679 19.6560499 196.044679 22.7619472 186.207508 22.7619472 186.207508 27.1921494 194.92158 27.1921494 194.92158 30.2870719 186.207508 30.2870719 186.207508 35.1489536 196.49465 35.1489536 196.49465 38.243876 182.871138 38.243876 182.871138 19.6560499"></polygon>
                        <polygon id="Path" fill="#FFFFFF" fill-rule="nonzero" points="224.879405 38.2329011 221.546693 38.2329011 221.546693 22.7619472 216.143383 22.7619472 216.143383 19.6670248 230.301007 19.6670248 230.301007 22.7619472 224.879405 22.7619472"></polygon>
                        <path d="M239.765031,38.5658065 C238.469745,38.5992571 237.181282,38.3677073 235.97869,37.8853625 C234.972047,37.4653827 234.084817,36.8031018 233.395929,35.957438 C232.688938,35.06296 232.18129,34.0277068 231.907001,32.9210484 C231.272825,30.3079262 231.272825,27.5810248 231.907001,24.9679026 C232.180435,23.8609327 232.688168,22.8255054 233.395929,21.931513 C234.084817,21.0858492 234.972047,20.4235683 235.97869,20.0035885 C238.421417,19.096448 241.108645,19.096448 243.551372,20.0035885 C244.558698,20.4223693 245.4462,21.0848532 246.134132,21.931513 C246.841894,22.8255054 247.349627,23.8609327 247.623061,24.9679026 C248.257237,27.5810248 248.257237,30.3079262 247.623061,32.9210484 C247.348772,34.0277068 246.841124,35.06296 246.134132,35.957438 C245.4462,36.8040978 244.558698,37.4665817 243.551372,37.8853625 C242.34878,38.3677073 241.060317,38.5992571 239.765031,38.5658065 Z M239.765031,22.418067 C238.91712,22.38475 238.074393,22.5646156 237.313969,22.941204 C236.694877,23.2754184 236.173044,23.7644791 235.799433,24.3606247 C235.411447,24.9947994 235.149363,25.6978281 235.027531,26.4312229 C234.739746,28.0894533 234.739746,29.7848645 235.027531,31.4430949 C235.148172,32.1813883 235.410273,32.8894321 235.799433,33.5283263 C236.171961,34.1244263 236.694137,34.6125466 237.313969,34.9440887 C238.874807,35.6418019 240.658913,35.6418019 242.219751,34.9440887 C242.836667,34.6138702 243.354408,34.1251727 243.719654,33.5283263 C244.102125,32.8872636 244.360278,32.179826 244.480581,31.4430949 C244.768366,29.7848645 244.768366,28.0894533 244.480581,26.4312229 C244.359015,25.6994168 244.100885,24.9970061 243.719654,24.3606247 C243.353541,23.7635465 242.836093,23.2738638 242.219751,22.941204 C241.458023,22.5646091 240.614115,22.3847599 239.765031,22.418067 L239.765031,22.418067 Z" id="Shape" fill="#FFFFFF" fill-rule="nonzero"></path>
                        <polygon id="Path" fill="#FFFFFF" fill-rule="nonzero" points="258.243108 34.2526699 259.706428 29.862709 263.185472 19.645075 266.884014 19.645075 259.889343 38.5658065 256.596873 38.5658065 249.598543 19.6560499 253.289769 19.6560499 256.765154 29.8736839"></polygon>
                        <polygon id="Path" fill="#FFFFFF" fill-rule="nonzero" points="272.558039 38.2329011 269.221669 38.2329011 269.221669 19.6560499 272.558039 19.6560499"></polygon>
                        <polygon id="Path" fill="#FFFFFF" fill-rule="nonzero" points="203.229581 32.1820717 203.229581 38.2329011 199.896869 38.2329011 199.896869 19.6560499 203.229581 19.6560499"></polygon>
                        <polygon id="Path" fill="#FFFFFF" fill-rule="nonzero" points="203.240556 28.1396493 205.79405 25.25325 210.893721 19.6560499 215.415381 19.6560499 207.418336 28.1103829 215.773895 38.2329011 211.347351 38.2329011 205.179456 30.4919367"></polygon>
                        <path d="M223.906297,8.43604152 C223.906297,6.09820316 225.314577,3.99056342 227.474458,3.09591141 C229.634339,2.2012594 232.12047,2.69578152 233.773571,4.34888288 C235.426672,6.00198424 235.921194,8.48811482 235.026542,10.6479958 C234.13189,12.8078768 232.024251,14.2161567 229.686412,14.2161567 C226.494143,14.2161567 223.906297,11.628311 223.906297,8.43604152 L223.906297,8.43604152 Z" id="Path" fill="#FFFFFF" fill-rule="nonzero"></path>
                        <path d="M241.001537,8.43604152 C241.001537,5.70329086 241.817338,3.4168529 242.918486,2.81689157 C242.482465,2.71117989 242.035516,2.65715318 241.586865,2.65592634 C238.394595,2.65592634 235.806749,5.24377205 235.806749,8.43604152 C235.806749,11.628311 238.394595,14.2161567 241.586865,14.2161567 C242.034324,14.2151539 242.480087,14.161122 242.914828,14.0551915 C241.817338,13.4552301 241.001537,11.1687922 241.001537,8.43604152 Z" id="Path" fill="#FFFFFF" fill-rule="nonzero"></path>
                        <path d="M246.80726,5.97034682 C246.384388,5.07831803 245.73942,4.30989845 244.93421,3.73878336 C245.567096,4.78505738 245.984142,6.50080043 245.984142,8.44701642 C245.984142,10.3932324 245.567096,12.1053172 244.93421,13.1552495 C245.742214,12.5815582 246.3886,11.8091706 246.810918,10.9127111 C246.240269,9.3184404 246.240269,7.57559245 246.810918,5.98132172 L246.80726,5.97034682 Z" id="Path" fill="#FFFFFF" fill-rule="nonzero"></path>
                        <path d="M271.595906,2.64129314 C270.852623,2.6649402 270.148939,2.98192646 269.638715,3.52294362 C271.332999,4.57466099 272.363502,6.42724002 272.363502,8.42140832 C272.363502,10.4155766 271.332999,12.2681556 269.638715,13.319873 C270.148939,13.8608902 270.852623,14.1778764 271.595906,14.2015235 C273.637238,14.2015235 275.294448,11.6151049 275.294448,8.42140832 C275.294448,5.22771177 273.637238,2.64129314 271.595906,2.64129314 Z" id="Path" fill="#FFFFFF" fill-rule="nonzero"></path>
                        <path d="M267.897364,8.43604152 C267.897364,6.3691016 268.596099,4.55824273 269.638715,3.53757682 C267.906534,2.44790949 265.725217,2.36288691 263.913474,3.31442048 C265.672245,4.42322983 266.739058,6.35692331 266.739058,8.43604152 C266.739058,10.5151597 265.672245,12.4488532 263.913474,13.5576626 C265.725217,14.5091961 267.906534,14.4241736 269.638715,13.3345062 C268.596099,12.3138403 267.897364,10.5066397 267.897364,8.43604152 Z" id="Path" fill="#E3E3E3" fill-rule="nonzero"></path>
                        <path d="M272.371466,8.43604152 C272.370623,6.44192775 271.340037,4.5896393 269.646031,3.53757682 C268.603416,4.55824273 267.90468,6.3691016 267.90468,8.43604152 C267.90468,10.5029814 268.603416,12.3138403 269.646031,13.3345062 C271.34109,12.2834474 272.372031,10.4305206 272.371466,8.43604152 Z" id="Path" fill="#B7B7B7" fill-rule="nonzero"></path>
                        <path d="M260.807577,8.43604152 C260.806087,6.28302768 262.003601,4.30832893 263.913474,3.31442048 C263.172988,2.88540079 262.332833,2.65833186 261.477046,2.65592634 C260.20471,2.66338569 258.98396,3.15980655 258.06751,4.04242232 C259.350742,5.1398801 260.089543,6.74386376 260.089543,8.43238322 C260.089543,10.1209027 259.350742,11.7248863 258.06751,12.8223441 C258.98396,13.7049599 260.20471,14.2013807 261.477046,14.2088401 C262.332833,14.2064346 263.172988,13.9793657 263.913474,13.550346 C262.005934,12.5576514 260.808816,10.5864257 260.807577,8.43604152 L260.807577,8.43604152 Z" id="Path" fill="#FFFFFF" fill-rule="nonzero"></path>
                        <path d="M266.737682,8.43604152 C266.777808,6.3471453 265.70147,4.39523834 263.913474,3.31442048 C262.005107,4.30981576 260.808431,6.28367642 260.808431,8.43604152 C260.808431,10.5884066 262.005107,12.5622673 263.913474,13.5576626 C265.70147,12.4768447 266.777808,10.5249377 266.737682,8.43604152 L266.737682,8.43604152 Z" id="Path" fill="url(#linearGradient-1)" fill-rule="nonzero"></path>
                        <path d="M256.220068,8.43604152 C256.199885,6.78339489 256.86153,5.19544776 258.049218,4.04608063 C256.476559,2.69246583 254.294892,2.29503581 252.345927,3.00712321 C254.050695,3.81194938 255.272568,5.93376381 255.272568,8.43238322 C255.272568,10.9310026 254.050695,13.0528171 252.345927,13.8576432 C254.298896,14.5789336 256.489444,14.1839627 258.06751,12.8260024 C256.873091,11.6797647 256.204661,10.091414 256.220068,8.43604152 L256.220068,8.43604152 Z" id="Path" fill="#D0D0D0" fill-rule="nonzero"></path>
                        <path d="M260.094208,8.43604152 C260.094524,6.74644514 259.353688,5.14174527 258.06751,4.04608063 C256.888612,5.20256278 256.224397,6.78460273 256.224397,8.43604152 C256.224397,10.0874803 256.888612,11.6695203 258.06751,12.8260024 C259.353688,11.7303378 260.094524,10.1256379 260.094208,8.43604152 L260.094208,8.43604152 Z" id="Path" fill="#E3E3E3" fill-rule="nonzero"></path>
                        <path d="M248.537636,8.43604152 C248.536273,6.00471793 250.059348,3.83349547 252.345927,3.00712321 C251.873222,2.77418794 251.354653,2.64923152 250.827732,2.64129314 C249.049798,2.64129314 247.535262,3.99852272 246.803602,5.95571361 C247.549928,7.51479721 247.549928,9.32801943 246.803602,10.887103 C247.535262,12.8442939 249.04614,14.2015235 250.827732,14.2015235 C251.354871,14.1953167 251.873817,14.0702693 252.345927,13.8356934 C250.069412,13.012986 248.548568,10.8566299 248.537636,8.43604152 L248.537636,8.43604152 Z" id="Path" fill="#B1B1B1" fill-rule="nonzero"></path>
                        <path d="M255.272568,8.43604152 C255.272568,5.93742211 254.050695,3.81560768 252.345927,3.01078151 C250.061072,3.83708985 248.53881,6.00636092 248.53881,8.43604152 C248.53881,10.8657221 250.061072,13.0349932 252.345927,13.8613015 C254.050695,13.0564754 255.272568,10.9346609 255.272568,8.43604152 Z" id="Path" fill="url(#linearGradient-2)" fill-rule="nonzero"></path>
                        <path d="M246.80726,5.97034682 C246.23661,7.56461755 246.23661,9.30746549 246.80726,10.9017362 C247.553586,9.34265263 247.553586,7.52943041 246.80726,5.97034682 L246.80726,5.97034682 Z" id="Path" fill="#E3E3E3" fill-rule="nonzero"></path>
                        <path d="M243.489181,14.2161567 C244.026951,14.2161567 244.52448,13.8174019 244.930552,13.1442746 C244.324529,13.5765505 243.639744,13.8860088 242.914828,14.0551915 C243.089427,14.1569296 243.287139,14.2123392 243.489181,14.2161567 Z" id="Path" fill="#FFFFFF" fill-rule="nonzero"></path>
                        <path d="M243.489181,2.64129314 C243.288239,2.64475256 243.091621,2.70020908 242.918486,2.80225837 C243.645216,2.97948968 244.330077,3.29768287 244.93421,3.73878336 C244.52448,3.05468112 244.026951,2.64129314 243.489181,2.64129314 Z" id="Path" fill="#FFFFFF" fill-rule="nonzero"></path>
                        <path d="M244.93421,3.73878336 C244.329143,3.30718419 243.64569,2.99776652 242.922144,2.82786648 C241.824654,3.4278278 241.005195,5.71426577 241.005195,8.44701642 C241.005195,11.1797671 241.820996,13.466205 242.918486,14.0661664 C243.643402,13.8969837 244.328187,13.5875255 244.93421,13.1552495 C245.567096,12.1089755 245.984142,10.3932324 245.984142,8.44701642 C245.984142,6.50080043 245.563438,4.77408247 244.93421,3.73878336 Z" id="Path" fill="#E3E3E3" fill-rule="nonzero"></path>
                        <line x1="147.155148" y1="22.0266288" x2="147.155148" y2="35.8915886" id="Path" stroke="#FFFFFF" stroke-width="0.731660149"></line>
                        <line x1="140.229984" y1="28.9737419" x2="154.091286" y2="28.9737419" id="Path" stroke="#FFFFFF" stroke-width="0.731660149"></line>
                        <path d="M275.971233,19.5463009 C276.722322,19.552369 277.326475,20.1658041 277.321092,20.916898 C277.315709,21.6679918 276.702825,22.2727041 275.951726,22.2680328 C275.200628,22.2633071 274.595357,21.6509746 274.599351,20.8998722 C274.599351,20.5376909 274.744454,20.1906035 275.002267,19.9362272 C275.260081,19.6818509 275.609085,19.5414065 275.971233,19.5463009 Z M275.971233,22.0705284 C276.444137,22.085396 276.878937,21.8123739 277.070985,21.379966 C277.263032,20.9475582 277.174066,20.441913 276.845961,20.1010238 C276.517855,19.7601346 276.015977,19.6519166 275.576548,19.827305 C275.137119,20.0026934 274.847686,20.4267457 274.844477,20.8998722 C274.831477,21.2065241 274.944545,21.5051361 275.15739,21.7262732 C275.370234,21.9474103 275.664309,22.0718036 275.971233,22.0705284 L275.971233,22.0705284 Z M275.437121,20.1096792 L276.051716,20.1096792 C276.417546,20.1096792 276.611436,20.2596695 276.611436,20.5669668 C276.617617,20.6813176 276.575659,20.7930366 276.495732,20.8750486 C276.415805,20.9570607 276.305203,21.0018806 276.190731,20.9986463 L276.648019,21.70104 L276.395596,21.70104 L275.963917,21.0169378 L275.700519,21.0169378 L275.700519,21.70104 L275.451755,21.70104 L275.437121,20.1096792 Z M275.685886,20.8157312 L275.945625,20.8157312 C276.161465,20.8157312 276.362672,20.8157312 276.362672,20.5559919 C276.362672,20.2962525 276.179757,20.3108857 275.996841,20.3108857 L275.671253,20.3108857 L275.685886,20.8157312 Z" id="Shape" fill="#FFFFFF" fill-rule="nonzero"></path>
                        <path d="M164.740599,60.3656206 C163.580918,59.2681304 161.082298,56.9816924 161.082298,52.6063647 C161.082298,48.1468961 163.621159,45.8567999 164.740599,44.861742 L165.446651,45.6190103 C164.488176,46.6140681 162.43587,48.7688072 162.43587,52.6392894 C162.428989,53.9661723 162.704589,55.2793253 163.244354,56.4914801 C163.73704,57.6839119 164.486475,58.7531054 165.439335,59.6229856 L164.740599,60.3656206 Z" id="Path" fill="#FFFFFF" fill-rule="nonzero"></path>
                        <path d="M166.946555,44.7776011 L166.946555,49.5590002 L166.979479,49.5590002 C167.180686,49.2553612 167.853813,48.3298112 168.98057,48.3298112 C169.571607,48.346991 170.135573,48.5814338 170.564614,48.9883053 C171.186525,49.6102164 171.523089,50.6711236 171.523089,52.9758531 C171.523089,55.0281598 171.21945,56.089067 170.546322,56.7951191 C170.146451,57.2034113 169.603105,57.4396486 169.031786,57.4536132 C167.835522,57.4536132 167.147761,56.3744145 166.961188,56.0561423 L166.928263,56.0561423 C166.900736,56.4986511 166.775818,56.9296191 166.562433,57.3182561 L165.464943,57.3182561 C165.557193,57.0820034 165.624624,56.836798 165.666149,56.5865959 C165.776833,56.0955093 165.833265,55.5937549 165.834431,55.0903509 L165.834431,44.7776011 L166.946555,44.7776011 Z M166.946555,55.3135073 C167.180686,55.6171462 167.835522,56.4439222 168.713514,56.4439222 C169.07001,56.4173449 169.404446,56.261188 169.653697,56.0049261 C170.158543,55.5000806 170.359749,54.6403799 170.359749,52.1673686 C170.359749,50.8540387 170.22805,49.1712203 168.896429,49.1712203 C168.102578,49.1712203 167.531883,49.7602067 166.961188,50.4333341 L166.946555,55.3135073 Z" id="Shape" fill="#FFFFFF" fill-rule="nonzero"></path>
                        <path d="M173.641245,45.0995316 L173.641245,46.2262882 L172.499855,46.2262882 L172.499855,45.0995316 L173.641245,45.0995316 Z M173.641245,48.4651683 L173.641245,57.3182561 L172.499855,57.3182561 L172.499855,48.4651683 L173.641245,48.4651683 Z" id="Shape" fill="#FFFFFF" fill-rule="nonzero"></path>
                        <path d="M180.548117,57.3182561 L179.450626,57.3182561 L179.450626,50.7552646 C179.450626,50.5869827 179.450626,49.3395022 178.47386,49.3395022 C177.899507,49.3395022 177.295887,49.7784983 176.421553,50.9711043 L176.421553,57.3182561 L175.291139,57.3182561 L175.291139,48.4651683 L176.421553,48.4651683 L176.421553,49.9979963 L176.454478,49.9979963 C177.16053,48.9700138 177.983648,48.3298112 178.825057,48.3298112 C180.474951,48.3298112 180.577383,50.4004094 180.577383,51.1906023 L180.548117,57.3182561 Z" id="Path" fill="#FFFFFF" fill-rule="nonzero"></path>
                        <path d="M183.013811,45.0995316 L183.013811,46.2262882 L181.887055,46.2262882 L181.887055,45.0995316 L183.013811,45.0995316 Z M183.013811,48.4651683 L183.013811,57.3182561 L181.887055,57.3182561 L181.887055,48.4651683 L183.013811,48.4651683 Z" id="Shape" fill="#FFFFFF" fill-rule="nonzero"></path>
                        <path d="M193.988714,57.3182561 L192.858299,57.3182561 L192.858299,50.4333341 C192.882547,50.1563935 192.794796,49.8812869 192.61467,49.6695355 C192.434544,49.4577842 192.177069,49.3270532 191.899824,49.3065775 C191.296204,49.3065775 190.707218,49.8297145 189.829226,50.9893958 L189.829226,57.3182561 L188.702469,57.3182561 L188.702469,50.6345406 C188.702469,50.2687106 188.63662,49.288286 187.725703,49.288286 C186.93551,49.288286 186.127025,50.33456 185.673396,50.9893958 L185.673396,57.3182561 L184.546639,57.3182561 L184.546639,48.4651683 L185.669738,48.4651683 L185.669738,49.9797048 C186.511147,49.0029385 187.133058,48.3298112 188.109824,48.3298112 C189.086591,48.3298112 189.54022,49.1382956 189.759718,50.0638457 C190.666977,49.0358632 191.358395,48.3298112 192.251021,48.3298112 C193.396069,48.3298112 193.985055,49.4565678 193.985055,50.6345406 L193.988714,57.3182561 Z" id="Path" fill="#FFFFFF" fill-rule="nonzero"></path>
                        <path d="M195.91298,53.0929187 C195.91298,53.850187 195.945905,55.0135266 196.417825,55.7525034 C196.682117,56.1838772 197.141818,56.4575087 197.647014,56.4841635 C198.166493,56.4841635 199.059118,56.0963836 199.29325,54.6001386 L200.39074,54.8159784 C200.072468,56.3158817 199.29325,57.4609298 197.731155,57.4609298 C197.039021,57.4593489 196.374845,57.1876405 195.880055,56.7036616 C195.038646,55.8110362 194.735007,54.3623491 194.735007,52.646606 C194.735007,51.3149846 194.903289,50.3748013 195.323993,49.6321662 C195.766095,48.8488825 196.586719,48.3549608 197.485837,48.3309844 C198.384954,48.3070079 199.230736,48.7564921 199.713954,49.5151006 C200.354157,50.4918669 200.387082,51.8198301 200.387082,53.1002353 L195.91298,53.0929187 Z M199.29325,52.0832277 C199.28539,51.5255673 199.206717,50.9711646 199.059118,50.4333341 C198.83962,49.811423 198.418916,49.2553612 197.595798,49.2553612 C196.999078,49.235281 196.454216,49.592664 196.23491,50.1479866 C196.000315,50.7653322 195.890881,51.4231807 195.91298,52.0832277 L199.29325,52.0832277 Z" id="Shape" fill="#FFFFFF" fill-rule="nonzero"></path>
                        <path d="M202.468655,45.4031706 L202.468655,48.4651683 L204.133182,48.4651683 L204.133182,49.4419346 L202.468655,49.4419346 L202.468655,55.383015 C202.468655,56.089067 202.735711,56.3597813 203.310064,56.3597813 C203.592801,56.3580484 203.872452,56.3008752 204.133182,56.1914995 L204.133182,57.3182561 C203.821096,57.4056312 203.498784,57.4511486 203.174707,57.4536132 C202.011367,57.4536132 201.345556,56.5426963 201.345556,55.2805826 L201.345556,49.4273014 L200.15295,49.4273014 L200.15295,48.4505351 L201.345556,48.4505351 L201.345556,45.3885374 L202.468655,45.4031706 Z" id="Path" fill="#FFFFFF" fill-rule="nonzero"></path>
                        <path d="M205.951357,45.0995316 L205.951357,46.2262882 L204.8246,46.2262882 L204.8246,45.0995316 L205.951357,45.0995316 Z M205.951357,48.4651683 L205.951357,57.3182561 L204.8246,57.3182561 L204.8246,48.4651683 L205.951357,48.4651683 Z" id="Shape" fill="#FFFFFF" fill-rule="nonzero"></path>
                        <path d="M212.375333,57.3182561 L211.248577,57.3182561 L211.248577,50.7552646 C211.248577,50.5869827 211.248577,49.3395022 210.27181,49.3395022 C209.701115,49.3395022 209.093837,49.7784983 208.219504,50.9711043 L208.219504,57.3182561 L207.092747,57.3182561 L207.092747,48.4651683 L208.219504,48.4651683 L208.219504,49.9979963 L208.252428,49.9979963 C208.95848,48.9700138 209.785256,48.3298112 210.626665,48.3298112 C212.276559,48.3298112 212.375333,50.4004094 212.375333,51.1906023 L212.375333,57.3182561 Z" id="Path" fill="#FFFFFF" fill-rule="nonzero"></path>
                        <path d="M214.819078,45.0995316 L214.819078,46.2262882 L213.692321,46.2262882 L213.692321,45.0995316 L214.819078,45.0995316 Z M214.819078,48.4651683 L214.819078,57.3182561 L213.692321,57.3182561 L213.692321,48.4651683 L214.819078,48.4651683 Z" id="Shape" fill="#FFFFFF" fill-rule="nonzero"></path>
                        <path d="M217.496954,44.7776011 L217.496954,49.5590002 L217.529879,49.5590002 C217.731086,49.2553612 218.404213,48.3298112 219.534628,48.3298112 C220.12454,48.3471992 220.687285,48.5816766 221.115014,48.9883053 C221.736925,49.6102164 222.073488,50.6711236 222.073488,52.9758531 C222.073488,55.0281598 221.773508,56.089067 221.096722,56.7951191 C220.699333,57.2048298 220.156486,57.4414218 219.585844,57.4536132 C218.38958,57.4536132 217.698161,56.3744145 217.515246,56.0561423 L217.478663,56.0561423 C217.452838,56.4989453 217.327813,56.9302808 217.112833,57.3182561 L216.015342,57.3182561 C216.105839,57.0814252 216.173221,56.8363982 216.216549,56.5865959 C216.327233,56.0955093 216.383665,55.5937549 216.384831,55.0903509 L216.384831,44.7776011 L217.496954,44.7776011 Z M217.496954,55.3135073 C217.731086,55.6171462 218.38958,56.4439222 219.263914,56.4439222 C219.621699,56.4182196 219.957582,56.2619953 220.207755,56.0049261 C220.712601,55.5000806 220.913807,54.6403799 220.913807,52.1673686 C220.913807,50.8540387 220.77845,49.1712203 219.432195,49.1712203 C218.642002,49.1712203 218.067649,49.7602067 217.496954,50.4333341 L217.496954,55.3135073 Z" id="Shape" fill="#FFFFFF" fill-rule="nonzero"></path>
                        <path d="M221.667417,44.861742 C222.827098,45.9409408 225.325718,48.2456702 225.325718,52.6209979 C225.325718,57.0804665 222.764907,59.3705628 221.667417,60.3656206 L220.957707,59.6083524 C221.91984,58.6132946 223.972147,56.4585554 223.972147,52.5880732 C223.977139,51.261382 223.701621,49.9486208 223.163662,48.7358825 C222.663993,47.5472939 221.915547,46.4795105 220.968682,45.6043771 L221.667417,44.861742 Z" id="Path" fill="#FFFFFF" fill-rule="nonzero"></path>
                    </g>
                </g>
            </g>
        </g>
    </g>
</svg>