<?xml version="1.0" encoding="UTF-8"?>
<svg width="295px" height="72px" viewBox="0 0 295 72" version="1.1" xmlns="http://www.w3.org/2000/svg" xmlns:xlink="http://www.w3.org/1999/xlink">
    <title>1A2A499B-24CE-4292-B48B-623B9B0A2FC6</title>
    <defs>
        <linearGradient x1="-118239.18%" y1="89076.93%" x2="8678.38%" y2="-6562.46%" id="linearGradient-1">
            <stop stop-color="#A8D381" offset="62%"></stop>
            <stop stop-color="#C2DFA4" offset="100%"></stop>
        </linearGradient>
        <linearGradient x1="7367.84%" y1="-8191.01%" x2="3234.48%" y2="-3624.14%" id="linearGradient-2">
            <stop stop-color="#D5E9C1" offset="0%"></stop>
            <stop stop-color="#D2E7BC" offset="9%"></stop>
            <stop stop-color="#C9E2AF" offset="23%"></stop>
            <stop stop-color="#BADB99" offset="38%"></stop>
            <stop stop-color="#A5D27D" offset="55%"></stop>
            <stop stop-color="#8BC755" offset="73%"></stop>
            <stop stop-color="#88C651" offset="75%"></stop>
        </linearGradient>
        <linearGradient x1="23496.16%" y1="-26011.02%" x2="-17940.62%" y2="19771.64%" id="linearGradient-3">
            <stop stop-color="#7AC143" offset="0%"></stop>
            <stop stop-color="#7AC143" offset="100%"></stop>
        </linearGradient>
        <linearGradient x1="43499.5%" y1="-36839.3647%" x2="-10260.5%" y2="22557.6353%" id="linearGradient-4">
            <stop stop-color="#7AC143" offset="0%"></stop>
            <stop stop-color="#7AC143" offset="100%"></stop>
        </linearGradient>
        <linearGradient x1="-82836.4706%" y1="112949.5%" x2="14038.8235%" y2="-11151.5%" id="linearGradient-5">
            <stop stop-color="#A8D381" offset="62%"></stop>
            <stop stop-color="#C2DFA4" offset="100%"></stop>
        </linearGradient>
        <linearGradient x1="25467.0588%" y1="-36405.5%" x2="-6145.29412%" y2="22971.5%" id="linearGradient-6">
            <stop stop-color="#7AC143" offset="0%"></stop>
            <stop stop-color="#7AC143" offset="100%"></stop>
        </linearGradient>
        <linearGradient x1="-140511%" y1="112579.863%" x2="24185%" y2="-11527.1369%" id="linearGradient-7">
            <stop stop-color="#A8D381" offset="62%"></stop>
            <stop stop-color="#C2DFA4" offset="100%"></stop>
        </linearGradient>
        <linearGradient x1="43531%" y1="-36876.1369%" x2="-10310%" y2="22611.8631%" id="linearGradient-8">
            <stop stop-color="#7AC143" offset="0%"></stop>
            <stop stop-color="#7AC143" offset="100%"></stop>
        </linearGradient>
        <linearGradient x1="43422%" y1="-36724.9716%" x2="-10275%" y2="22604.0284%" id="linearGradient-9">
            <stop stop-color="#7AC143" offset="0%"></stop>
            <stop stop-color="#7AC143" offset="100%"></stop>
        </linearGradient>
        <linearGradient x1="22465%" y1="-13568.9716%" x2="17105%" y2="-7646.97164%" id="linearGradient-10">
            <stop stop-color="#D5E9C1" offset="0%"></stop>
            <stop stop-color="#D2E7BC" offset="9%"></stop>
            <stop stop-color="#C9E2AF" offset="23%"></stop>
            <stop stop-color="#BADB99" offset="38%"></stop>
            <stop stop-color="#A5D27D" offset="55%"></stop>
            <stop stop-color="#8BC755" offset="73%"></stop>
            <stop stop-color="#88C651" offset="75%"></stop>
        </linearGradient>
        <linearGradient x1="-29430.1507%" y1="36.89%" x2="6356.39041%" y2="36.89%" id="linearGradient-11">
            <stop stop-color="#92CA60" offset="40%"></stop>
            <stop stop-color="#A5D27D" offset="80%"></stop>
            <stop stop-color="#91C95E" offset="100%"></stop>
        </linearGradient>
        <linearGradient x1="29645.8904%" y1="-36405.5%" x2="-7165.75342%" y2="22976.5%" id="linearGradient-12">
            <stop stop-color="#7AC143" offset="0%"></stop>
            <stop stop-color="#7AC143" offset="100%"></stop>
        </linearGradient>
        <linearGradient x1="-139533.663%" y1="113021.5%" x2="23538.6139%" y2="-11091.5%" id="linearGradient-13">
            <stop stop-color="#A8D381" offset="62%"></stop>
            <stop stop-color="#C2DFA4" offset="100%"></stop>
        </linearGradient>
        <linearGradient x1="-42317.8218%" y1="-3030.5%" x2="24829.703%" y2="-3030.5%" id="linearGradient-14">
            <stop stop-color="#92CA60" offset="40%"></stop>
            <stop stop-color="#A5D27D" offset="80%"></stop>
            <stop stop-color="#91C95E" offset="100%"></stop>
        </linearGradient>
        <linearGradient x1="42771.2871%" y1="-36311.5%" x2="-10393.0693%" y2="23016.5%" id="linearGradient-15">
            <stop stop-color="#7AC143" offset="0%"></stop>
            <stop stop-color="#7AC143" offset="100%"></stop>
        </linearGradient>
        <linearGradient x1="16715.5%" y1="-7555.5%" x2="11430.5%" y2="-1716.5%" id="linearGradient-16">
            <stop stop-color="#7AC143" offset="0%"></stop>
            <stop stop-color="#7AC143" offset="100%"></stop>
        </linearGradient>
        <linearGradient x1="16777.4504%" y1="-7729%" x2="11432.4504%" y2="-1824%" id="linearGradient-17">
            <stop stop-color="#D5E9C1" offset="0%"></stop>
            <stop stop-color="#D2E7BC" offset="9%"></stop>
            <stop stop-color="#C9E2AF" offset="23%"></stop>
            <stop stop-color="#BADB99" offset="38%"></stop>
            <stop stop-color="#A5D27D" offset="55%"></stop>
            <stop stop-color="#8BC755" offset="73%"></stop>
            <stop stop-color="#88C651" offset="75%"></stop>
        </linearGradient>
        <linearGradient x1="-7164.69955%" y1="5388.07%" x2="227.300447%" y2="-182.11%" id="linearGradient-18">
            <stop stop-color="#9CCE70" offset="61%"></stop>
            <stop stop-color="#B7DA96" offset="100%"></stop>
        </linearGradient>
        <linearGradient x1="-5050.52%" y1="58.92%" x2="1030.17%" y2="58.92%" id="linearGradient-19">
            <stop stop-color="#7AC143" offset="40%"></stop>
            <stop stop-color="#7EC246" offset="80%"></stop>
            <stop stop-color="#91C95E" offset="100%"></stop>
        </linearGradient>
        <linearGradient x1="5075.5%" y1="2003%" x2="14724.5%" y2="-5268%" id="linearGradient-20">
            <stop stop-color="#9CCE70" offset="61%"></stop>
            <stop stop-color="#B7DA96" offset="100%"></stop>
        </linearGradient>
        <linearGradient x1="-0.928053334%" y1="50.749858%" x2="97.7811625%" y2="49.5844139%" id="linearGradient-21">
            <stop stop-color="#FFFFFF" stop-opacity="0" offset="11%"></stop>
            <stop stop-color="#F7F6FB" stop-opacity="0.11" offset="21%"></stop>
            <stop stop-color="#E9E6F3" stop-opacity="0.23" offset="32%"></stop>
            <stop stop-color="#D3CEE7" stop-opacity="0.36" offset="43%"></stop>
            <stop stop-color="#B6AFD7" stop-opacity="0.5" offset="56%"></stop>
            <stop stop-color="#968CC3" stop-opacity="0.64" offset="68%"></stop>
            <stop stop-color="#7568AF" stop-opacity="0.79" offset="81%"></stop>
            <stop stop-color="#50429A" stop-opacity="0.93" offset="94%"></stop>
            <stop stop-color="#3E3092" offset="100%"></stop>
        </linearGradient>
        <linearGradient x1="-2.07971622%" y1="47.4536372%" x2="97.2136081%" y2="47.4536372%" id="linearGradient-22">
            <stop stop-color="#FFFFFF" stop-opacity="0" offset="1%"></stop>
            <stop stop-color="#FBFDF9" stop-opacity="0.11" offset="11%"></stop>
            <stop stop-color="#F2F8ED" stop-opacity="0.23" offset="24%"></stop>
            <stop stop-color="#E6F2DB" stop-opacity="0.36" offset="37%"></stop>
            <stop stop-color="#D6E9C3" stop-opacity="0.5" offset="50%"></stop>
            <stop stop-color="#C1DFA4" stop-opacity="0.64" offset="64%"></stop>
            <stop stop-color="#A8D381" stop-opacity="0.79" offset="79%"></stop>
            <stop stop-color="#8AC754" stop-opacity="0.93" offset="93%"></stop>
            <stop stop-color="#7AC143" offset="100%"></stop>
        </linearGradient>
        <linearGradient x1="-4.97286296%" y1="50.0714546%" x2="102.97863%" y2="50.0714546%" id="linearGradient-23">
            <stop stop-color="#897DBB" offset="1%"></stop>
            <stop stop-color="#8377B7" offset="19%"></stop>
            <stop stop-color="#7468AE" offset="48%"></stop>
            <stop stop-color="#5C4FA1" offset="84%"></stop>
            <stop stop-color="#5A4DA0" offset="87%"></stop>
        </linearGradient>
        <linearGradient x1="-6046.11%" y1="46.22%" x2="210.91%" y2="46.22%" id="linearGradient-24">
            <stop stop-color="#8478B7" offset="1%"></stop>
            <stop stop-color="#7E72B4" offset="50%"></stop>
            <stop stop-color="#7568AF" offset="100%"></stop>
        </linearGradient>
        <linearGradient x1="-6507.99%" y1="-3219.29%" x2="57.03%" y2="125.59%" id="linearGradient-25">
            <stop stop-color="#7568AF" offset="1%"></stop>
            <stop stop-color="#7165AD" offset="19%"></stop>
            <stop stop-color="#675AA7" offset="43%"></stop>
            <stop stop-color="#56489D" offset="70%"></stop>
            <stop stop-color="#3F3192" offset="99%"></stop>
            <stop stop-color="#3E3092" offset="100%"></stop>
        </linearGradient>
        <linearGradient x1="6001.5%" y1="-4025.5%" x2="14066.5%" y2="-4025.5%" id="linearGradient-26">
            <stop stop-color="#8478B7" offset="1%"></stop>
            <stop stop-color="#7E72B4" offset="50%"></stop>
            <stop stop-color="#7568AF" offset="100%"></stop>
        </linearGradient>
        <linearGradient x1="6001.5%" y1="-4025.5%" x2="14070.5%" y2="-4025.5%" id="linearGradient-27">
            <stop stop-color="#8478B7" offset="1%"></stop>
            <stop stop-color="#7E72B4" offset="50%"></stop>
            <stop stop-color="#7568AF" offset="100%"></stop>
        </linearGradient>
        <linearGradient x1="-12829.8713%" y1="43.6493506%" x2="277.663366%" y2="43.6493506%" id="linearGradient-28">
            <stop stop-color="#6558A6" offset="0%"></stop>
            <stop stop-color="#6558A6" offset="71%"></stop>
            <stop stop-color="#6356A5" offset="81%"></stop>
            <stop stop-color="#5E50A2" offset="87%"></stop>
            <stop stop-color="#55479D" offset="92%"></stop>
            <stop stop-color="#473996" offset="97%"></stop>
            <stop stop-color="#3E3092" offset="100%"></stop>
        </linearGradient>
        <linearGradient x1="4577.23577%" y1="-3809.09091%" x2="11378.8618%" y2="-1769.37799%" id="linearGradient-29">
            <stop stop-color="#7568AF" offset="1%"></stop>
            <stop stop-color="#7165AD" offset="19%"></stop>
            <stop stop-color="#675AA7" offset="43%"></stop>
            <stop stop-color="#56489D" offset="70%"></stop>
            <stop stop-color="#3F3192" offset="99%"></stop>
            <stop stop-color="#3E3092" offset="100%"></stop>
        </linearGradient>
        <linearGradient x1="-2416.26016%" y1="-1803.82775%" x2="11569.9187%" y2="-1803.82775%" id="linearGradient-30">
            <stop stop-color="#6558A6" offset="0%"></stop>
            <stop stop-color="#6558A6" offset="71%"></stop>
            <stop stop-color="#6356A5" offset="81%"></stop>
            <stop stop-color="#5E50A2" offset="87%"></stop>
            <stop stop-color="#55479D" offset="92%"></stop>
            <stop stop-color="#473996" offset="97%"></stop>
            <stop stop-color="#3E3092" offset="100%"></stop>
        </linearGradient>
        <linearGradient x1="-1675.44828%" y1="43.0408163%" x2="856.258621%" y2="43.0408163%" id="linearGradient-31">
            <stop stop-color="#897DBB" offset="1%"></stop>
            <stop stop-color="#8377B7" offset="22%"></stop>
            <stop stop-color="#7468AE" offset="55%"></stop>
            <stop stop-color="#5C4FA1" offset="96%"></stop>
            <stop stop-color="#5A4DA0" offset="100%"></stop>
        </linearGradient>
        <linearGradient x1="-2434.48276%" y1="-2550.34014%" x2="12367.2414%" y2="-2550.34014%" id="linearGradient-32">
            <stop stop-color="#6558A6" offset="0%"></stop>
            <stop stop-color="#6558A6" offset="71%"></stop>
            <stop stop-color="#6356A5" offset="81%"></stop>
            <stop stop-color="#5E50A2" offset="87%"></stop>
            <stop stop-color="#55479D" offset="92%"></stop>
            <stop stop-color="#473996" offset="97%"></stop>
            <stop stop-color="#3E3092" offset="100%"></stop>
        </linearGradient>
        <linearGradient x1="-14.5795365%" y1="50.1008956%" x2="97.8496261%" y2="50.1008956%" id="linearGradient-33">
            <stop stop-color="#8478B7" offset="1%"></stop>
            <stop stop-color="#7E72B4" offset="40%"></stop>
            <stop stop-color="#7064AC" offset="100%"></stop>
        </linearGradient>
        <linearGradient x1="-1.94553841%" y1="50.0973202%" x2="97.7706227%" y2="50.0973202%" id="linearGradient-34">
            <stop stop-color="#6558A6" offset="0%"></stop>
            <stop stop-color="#6558A6" offset="45%"></stop>
            <stop stop-color="#6356A5" offset="63%"></stop>
            <stop stop-color="#5E50A2" offset="75%"></stop>
            <stop stop-color="#55479D" offset="85%"></stop>
            <stop stop-color="#473996" offset="95%"></stop>
            <stop stop-color="#3E3092" offset="100%"></stop>
        </linearGradient>
        <linearGradient x1="-0.711165236%" y1="50.0915167%" x2="98.9668321%" y2="50.0915167%" id="linearGradient-35">
            <stop stop-color="#7A6DB2" offset="0%"></stop>
            <stop stop-color="#7A6EB2" offset="2%"></stop>
            <stop stop-color="#7D71B4" offset="38%"></stop>
            <stop stop-color="#7B6FB2" offset="55%"></stop>
            <stop stop-color="#7669AF" offset="67%"></stop>
            <stop stop-color="#6C5FAA" offset="77%"></stop>
            <stop stop-color="#5F51A2" offset="86%"></stop>
            <stop stop-color="#4E4099" offset="94%"></stop>
            <stop stop-color="#3E3092" offset="100%"></stop>
        </linearGradient>
        <linearGradient x1="4068.34532%" y1="-3118.43137%" x2="10087.7698%" y2="-1446.66667%" id="linearGradient-36">
            <stop stop-color="#7568AF" offset="1%"></stop>
            <stop stop-color="#7165AD" offset="19%"></stop>
            <stop stop-color="#675AA7" offset="43%"></stop>
            <stop stop-color="#56489D" offset="70%"></stop>
            <stop stop-color="#3F3192" offset="99%"></stop>
            <stop stop-color="#3E3092" offset="100%"></stop>
        </linearGradient>
        <linearGradient x1="4489.92806%" y1="-1476.47059%" x2="10337.4101%" y2="-1476.47059%" id="linearGradient-37">
            <stop stop-color="#8478B7" offset="1%"></stop>
            <stop stop-color="#7E72B4" offset="50%"></stop>
            <stop stop-color="#7568AF" offset="100%"></stop>
        </linearGradient>
        <linearGradient x1="-2153.23741%" y1="-1476.47059%" x2="10221.5827%" y2="-1476.47059%" id="linearGradient-38">
            <stop stop-color="#6558A6" offset="0%"></stop>
            <stop stop-color="#6558A6" offset="71%"></stop>
            <stop stop-color="#6356A5" offset="81%"></stop>
            <stop stop-color="#5E50A2" offset="87%"></stop>
            <stop stop-color="#55479D" offset="92%"></stop>
            <stop stop-color="#473996" offset="97%"></stop>
            <stop stop-color="#3E3092" offset="100%"></stop>
        </linearGradient>
        <linearGradient x1="-90902.2045%" y1="94167.7419%" x2="10773.6579%" y2="-5975%" id="linearGradient-39">
            <stop stop-color="#A8D381" offset="62%"></stop>
            <stop stop-color="#C2DFA4" offset="100%"></stop>
        </linearGradient>
        <linearGradient x1="-3523.59889%" y1="1254.6288%" x2="618.120131%" y2="-57.7622193%" id="linearGradient-40">
            <stop stop-color="#A8D381" offset="62%"></stop>
            <stop stop-color="#C2DFA4" offset="100%"></stop>
        </linearGradient>
        <linearGradient x1="-21.6115733%" y1="50.006625%" x2="144.500677%" y2="50.006625%" id="linearGradient-41">
            <stop stop-color="#C0DEA3" offset="36%"></stop>
            <stop stop-color="#C6E1AA" offset="100%"></stop>
        </linearGradient>
        <linearGradient x1="-46943.5%" y1="-5046%" x2="21196.5%" y2="-5046%" id="linearGradient-42">
            <stop stop-color="#92CA60" offset="40%"></stop>
            <stop stop-color="#A5D27D" offset="80%"></stop>
            <stop stop-color="#91C95E" offset="100%"></stop>
        </linearGradient>
        <linearGradient x1="-146302%" y1="115935%" x2="-18926%" y2="19950%" id="linearGradient-43">
            <stop stop-color="#A8D381" offset="62%"></stop>
            <stop stop-color="#C2DFA4" offset="100%"></stop>
        </linearGradient>
        <linearGradient x1="-46600%" y1="-5039%" x2="21127%" y2="-5039%" id="linearGradient-44">
            <stop stop-color="#92CA60" offset="40%"></stop>
            <stop stop-color="#A5D27D" offset="80%"></stop>
            <stop stop-color="#91C95E" offset="100%"></stop>
        </linearGradient>
        <linearGradient x1="-146542.5%" y1="116111%" x2="17421.5%" y2="-7445.00043%" id="linearGradient-45">
            <stop stop-color="#A8D381" offset="62%"></stop>
            <stop stop-color="#C2DFA4" offset="100%"></stop>
        </linearGradient>
        <linearGradient x1="-5437.37%" y1="60.5695706%" x2="1173.08%" y2="60.5695706%" id="linearGradient-46">
            <stop stop-color="#B2D88F" offset="36%"></stop>
            <stop stop-color="#C6E1AA" offset="100%"></stop>
        </linearGradient>
        <linearGradient x1="-29320.7171%" y1="23324.502%" x2="3519.32271%" y2="-1422.11155%" id="linearGradient-47">
            <stop stop-color="#A8D381" offset="62%"></stop>
            <stop stop-color="#C2DFA4" offset="100%"></stop>
        </linearGradient>
        <linearGradient x1="1438.24701%" y1="-948.605578%" x2="3150.59761%" y2="-948.605578%" id="linearGradient-48">
            <stop stop-color="#B2D88F" offset="36%"></stop>
            <stop stop-color="#C6E1AA" offset="100%"></stop>
        </linearGradient>
        <linearGradient x1="-9311.75299%" y1="-948.605578%" x2="4199.8008%" y2="-948.605578%" id="linearGradient-49">
            <stop stop-color="#92CA60" offset="40%"></stop>
            <stop stop-color="#A5D27D" offset="80%"></stop>
            <stop stop-color="#91C95E" offset="100%"></stop>
        </linearGradient>
        <linearGradient x1="-1643.19246%" y1="1744.48357%" x2="284.288564%" y2="-77.5088028%" id="linearGradient-50">
            <stop stop-color="#A8D381" offset="62%"></stop>
            <stop stop-color="#C2DFA4" offset="100%"></stop>
        </linearGradient>
        <linearGradient x1="2938.23494%" y1="-1925.5%" x2="-3892.43506%" y2="2513.77647%" id="linearGradient-51">
            <stop stop-color="#AAD485" offset="1%"></stop>
            <stop stop-color="#A7D380" offset="33%"></stop>
            <stop stop-color="#9ECF73" offset="78%"></stop>
            <stop stop-color="#99CC6A" offset="99%"></stop>
        </linearGradient>
        <linearGradient x1="715.58642%" y1="-1802.19585%" x2="-215.912209%" y2="1760%" id="linearGradient-52">
            <stop stop-color="#AAD485" offset="1%"></stop>
            <stop stop-color="#A7D380" offset="33%"></stop>
            <stop stop-color="#9ECF73" offset="78%"></stop>
            <stop stop-color="#99CC6A" offset="99%"></stop>
        </linearGradient>
        <linearGradient x1="47.8578553%" y1="450.121256%" x2="47.8578553%" y2="-351.337414%" id="linearGradient-53">
            <stop stop-color="#7AC143" offset="0%"></stop>
            <stop stop-color="#7DC245" offset="26%"></stop>
            <stop stop-color="#7EC246" offset="27%"></stop>
            <stop stop-color="#91C95E" offset="41%"></stop>
            <stop stop-color="#9FCF74" offset="56%"></stop>
            <stop stop-color="#A9D382" offset="71%"></stop>
            <stop stop-color="#AFD68B" offset="85%"></stop>
            <stop stop-color="#B1D78D" offset="100%"></stop>
        </linearGradient>
        <linearGradient x1="7307.5%" y1="-5039%" x2="15872.5%" y2="-5039%" id="linearGradient-54">
            <stop stop-color="#B2D88F" offset="36%"></stop>
            <stop stop-color="#C6E1AA" offset="100%"></stop>
        </linearGradient>
        <linearGradient x1="-46467.5%" y1="-5039%" x2="21120.5%" y2="-5039%" id="linearGradient-55">
            <stop stop-color="#92CA60" offset="40%"></stop>
            <stop stop-color="#A5D27D" offset="80%"></stop>
            <stop stop-color="#91C95E" offset="100%"></stop>
        </linearGradient>
        <linearGradient x1="2739.37612%" y1="-3654.89828%" x2="-2965.31965%" y2="4564.81027%" id="linearGradient-56">
            <stop stop-color="#AAD485" offset="1%"></stop>
            <stop stop-color="#A7D380" offset="33%"></stop>
            <stop stop-color="#9ECF73" offset="78%"></stop>
            <stop stop-color="#99CC6A" offset="99%"></stop>
        </linearGradient>
        <linearGradient x1="335.833573%" y1="-87.1754183%" x2="257.94702%" y2="-0.952106174%" id="linearGradient-57">
            <stop stop-color="#D5E9C1" offset="0%"></stop>
            <stop stop-color="#D2E7BC" offset="9%"></stop>
            <stop stop-color="#C9E2AF" offset="23%"></stop>
            <stop stop-color="#BADB99" offset="38%"></stop>
            <stop stop-color="#A5D27D" offset="55%"></stop>
            <stop stop-color="#8BC755" offset="73%"></stop>
            <stop stop-color="#88C651" offset="75%"></stop>
        </linearGradient>
    </defs>
    <g id="WIP" stroke="none" stroke-width="1" fill="none" fill-rule="evenodd">
        <g id="01.-Ibrance_Homepage_mobile" transform="translate(-40.000000, -177.000000)">
            <g id="Logo/US/Colour/Ibrance" transform="translate(40.000000, 177.000000)">
                <g id="Asset-1" transform="translate(41.177083, 0.000000)">
                    <path d="M35.4185385,24.3852163 C35.4185385,27.4451122 33.7009537,29.0276442 31.8267656,29.9991987 C34.7921252,31.0008013 36.8229167,32.6684696 36.8229167,36.1139824 C36.8229167,40.6211939 33.1149542,43 27.4923898,43 L15.8229167,43 L15.8229167,18 L27.1438212,18 C32.1955412,18 35.4185385,20.5040064 35.4185385,24.3852163 M31.008387,25.1213942 C31.008387,23.068109 29.4069917,21.911258 26.5578216,21.911258 L20.1572924,21.911258 L20.1572924,28.5669071 L26.2193564,28.5669071 C29.1089402,28.5268429 31.0235421,27.4451122 31.0235421,25.1213942 M32.4279203,35.6382212 C32.4279203,33.5098157 30.7507492,32.2327724 27.2347521,32.2327724 L20.1926545,32.2327724 L20.1926545,39.09375 L27.5328036,39.09375 C30.5638356,39.1288061 32.4127651,37.931891 32.4127651,35.6482372" id="Shape" fill="#3E3092" fill-rule="nonzero"></path>
                    <path d="M58.4551656,43 L52.0812854,34.305 L46.3764292,34.305 L46.3764292,43 L41.8229167,43 L41.8229167,18 L53.3622849,18 C59.3368252,18 62.9827469,21.055 62.9827469,25.92 C62.9827469,30.055 60.3896305,32.565 56.8111298,33.535 L63.8229167,43 L58.4551656,43 Z M53.0044348,22 L46.3919879,22 L46.3919879,30.365 L53.0459247,30.365 C56.3132514,30.365 58.3877446,28.73 58.3877446,26.155 C58.3877446,23.41 56.3858587,21.98 53.0199935,21.98" id="Shape" fill="#3E3092" fill-rule="nonzero"></path>
                    <path d="M92.8229167,43 L88.0280891,43 L85.390158,36.7674419 L73.1573994,36.7674419 L70.4780891,43 L65.8229167,43 L77.202227,17 L81.402227,17 L92.8229167,43 Z M79.2711925,22.3901809 L74.8384339,32.7260982 L83.7660201,32.7260982 L79.2711925,22.3901809 Z" id="Shape" fill="#3E3092" fill-rule="nonzero"></path>
                    <polygon id="Path" fill="#3E3092" fill-rule="nonzero" points="114.451187 18 118.822917 18 118.822917 43 115.077162 43 101.189599 25.225 101.189599 43 96.8229167 43 96.8229167 18 100.916997 18 114.451187 35.27"></polygon>
                    <path d="M137.607398,43 C130.302698,43 124.822917,37.2870406 124.822917,30.0201161 C124.822917,22.8286267 130.18707,17 137.798436,17 C142.423572,17 145.218764,18.6344294 147.626851,20.9276596 L144.806523,24.1965184 C142.795594,22.3307544 140.648928,21.088588 137.768272,21.088588 C132.94707,21.088588 129.493299,25.0514507 129.493299,29.984913 C129.493299,34.9183752 133.012425,38.9617021 137.768272,38.9617021 C140.834939,38.9617021 142.795594,37.7195358 144.992534,35.6978723 L147.822917,38.5694391 C145.183572,41.2499033 142.292862,43 137.607398,43" id="Path" fill="#3E3092" fill-rule="nonzero"></path>
                    <polygon id="Path" fill="#3E3092" fill-rule="nonzero" points="171.624788 21.905 157.257943 21.905 157.257943 28.435 170.014361 28.435 170.014361 32.335 157.257943 32.335 157.257943 39.055 171.822917 39.055 171.822917 43 152.822917 43 152.822917 18 171.624788 18"></polygon>
                    <path d="M37.1559372,55.1877087 L37.1559372,56.3730641 C37.9952464,55.5729492 38.6370711,55.0000136 39.8269153,55.0000136 C40.7776261,54.9971316 41.6719562,55.4508957 42.2312893,56.2199557 C42.6883113,57.0049978 42.8885536,57.9133363 42.8039944,58.8178597 L42.8039944,64.7446369 C42.6509439,65.8509687 42.4583965,66.6560226 41.5055337,67.2635172 C40.4001767,67.9793024 38.9637456,67.9199233 37.9211897,67.1153478 C37.670576,66.8906031 37.4513715,66.6331065 37.2694908,66.3498057 L37.2694908,72 L35.8229167,72 L35.8229167,55.2667324 L37.1559372,55.2667324 L37.1559372,55.1877087 Z M38.0742402,66.0534669 C38.4568003,66.3520996 38.9225429,66.5246622 39.4072607,66.547365 C39.5480324,66.5530472 39.6889694,66.5414362 39.8269153,66.5127921 C40.4347162,66.3673693 40.9251466,65.9196589 41.125376,65.3274367 C41.3524832,64.6804302 41.3129863,63.5740984 41.3129863,61.87015 C41.3129863,61.1441198 41.3524832,60.4180896 41.3524832,59.6574865 C41.4056474,58.8462809 41.3153974,58.0320518 41.0858791,57.2522028 C40.8064636,56.635297 40.1976946,56.2337801 39.5208143,56.2199557 C39.0861027,56.2260029 38.6624853,56.3581117 38.3013474,56.6002573 C37.4225413,57.1731791 37.2694908,57.973294 37.2694908,58.9660292 C37.2694908,59.4599273 37.3089877,59.9982762 37.3089877,60.4971133 C37.3089877,61.3318011 37.3089877,62.0973431 37.2694908,62.9369699 C37.234931,64.1223253 37.234931,65.3422536 38.0742402,66.028772" id="Shape" fill="#000000" fill-rule="nonzero"></path>
                    <path d="M53.114641,58.3174767 C53.0739678,57.5398642 53.0739678,57.186404 52.8756858,56.9137347 C52.590223,56.4345732 52.0631126,56.1495507 51.5029642,56.1714682 C51.1084404,56.1831181 50.7206453,56.275966 50.3641138,56.4441375 C49.6167432,56.7975977 49.6167432,57.4237273 49.4591344,58.8628154 L47.989814,58.8628154 C47.989814,58.6709369 47.8322052,57.1460085 48.4982294,56.2118636 C48.8259304,55.8285054 49.2455689,55.5332914 49.7184263,55.3534602 C50.2644952,55.125989 50.8498289,55.0059491 51.4419544,55 C52.4291296,55.0044551 53.3700914,55.4159433 54.039957,56.1361222 C54.5076991,56.7168068 54.6653079,57.2671949 54.6653079,58.8628154 L54.6653079,66.5884461 L54.8229167,67.8407052 L53.2976705,67.8407052 L53.2569973,66.8661648 C53.1400618,66.9823018 53.0231262,67.0580432 52.9011065,67.1741802 C52.3052518,67.6998137 51.5372866,67.9923394 50.7403412,67.9972376 C49.920946,68.0339004 49.1280985,67.704105 48.5795758,67.0984387 C48.0337684,66.3730597 47.7685344,65.4770647 47.8322052,64.5737228 C47.8392638,64.2089619 47.8664199,63.8448582 47.9135517,63.4830455 C47.8809014,62.4859012 48.3521302,61.5385114 49.1693377,60.9583296 C50.272599,60.2564585 51.9198649,60.2160631 53.1400618,60.1403216 L53.114641,58.3174767 Z M52.4435327,61.2461472 C52.2096616,61.2461472 50.6386581,61.2865426 49.774352,62.1449461 C49.5598825,62.4039191 49.4116213,62.7105428 49.3421989,63.0386955 C49.242428,63.6057141 49.1897146,64.1799131 49.1845901,64.7555023 C49.1742195,65.0758285 49.2277849,65.3950259 49.3421989,65.6946966 C49.578832,66.3991128 50.2469184,66.870725 50.9945489,66.8611154 C51.3820001,66.859541 51.7616823,66.7530482 52.0927261,66.5531001 C53.1553142,65.886575 53.1095568,64.5989699 53.1095568,64.2909546 C53.1095568,63.7860114 53.0688836,63.2356233 53.0688836,62.7256307 L53.0688836,61.2108012 L52.4435327,61.2108012 L52.4435327,61.2511966 L52.4435327,61.2461472 Z" id="Shape" fill="#000000" fill-rule="nonzero"></path>
                    <rect id="Rectangle" fill="#000000" fill-rule="nonzero" x="58.8229167" y="50" width="2" height="18"></rect>
                    <path d="M67.2701741,49.0727367 L67.2701741,55.754121 C68.0676424,55.1150773 68.7469673,54.590334 69.7807226,54.590334 C70.7267502,54.5956407 71.6150917,55.0711675 72.1780503,55.873617 C72.7441544,56.7204799 72.7441544,57.4790197 72.7835355,58.5233107 C72.8229167,59.5676017 72.8229167,60.7313887 72.8229167,61.8588074 C72.7835355,62.7784069 72.7441544,63.7447658 72.7096959,64.7059292 C72.6577758,65.2286479 72.5419514,65.7420723 72.3651108,66.2333996 C71.8272655,67.3256485 70.7550238,68.0078607 69.5887395,67.9999316 C68.6042106,67.9999316 68.0282613,67.5166826 67.2307929,66.836075 L67.1175721,67.7608701 L65.8229167,67.7608701 L65.8229167,49 L67.2701741,49 L67.2701741,49.0727367 Z M67.1914117,64.4045915 C67.220916,64.8318467 67.310505,65.2520884 67.4572345,65.6515061 C67.7853675,66.4002513 68.5020532,66.8732608 69.2835355,66.8568569 C70.1123477,66.8802799 70.8563693,66.3236143 71.1098365,65.4904463 C71.1757863,65.2698231 71.2138554,65.0409775 71.2230573,64.8098387 C71.228398,64.7015642 71.2415633,64.5938781 71.2624385,64.4877191 L71.2624385,57.7803574 C71.2295928,57.6235277 71.2163531,57.4628328 71.2230573,57.3023734 C70.9539458,56.3740945 70.1302483,55.7500862 69.2108474,55.777984 C68.2914464,55.8058818 67.5030777,56.4788057 67.284942,57.4218694 C67.2563927,57.5670342 67.2448201,57.7153465 67.2504835,57.863485 C67.2504835,57.982981 67.2111023,58.1440408 67.1717212,58.1440408 L67.1717212,64.4045915 L67.1914117,64.4045915 Z" id="Shape" fill="#000000" fill-rule="nonzero"></path>
                    <path d="M76.8401514,60.1776947 C76.8401514,59.6740079 76.8013732,59.1300262 76.8401514,58.6213025 C76.8401514,58.3140536 76.8789297,56.8332144 77.7029671,55.9366519 C78.1149858,55.5085181 78.9390231,55.0048314 80.4707632,55.0048314 C81.347027,54.9571359 82.2070011,55.2640322 82.8701662,55.8610989 C84.0286658,56.9893573 83.805691,58.5054546 83.805691,61.6182389 C83.805691,63.8394977 83.8832475,65.0433091 83.543938,66.0204615 C83.3557094,66.6617448 82.9230757,67.1950227 82.3466601,67.4962638 C81.6937366,67.8299798 80.9754176,68.0023619 80.2477884,67.9999756 C78.5270044,67.9999756 77.8532327,67.335084 77.4024358,66.6752543 C77.0291953,66.0154246 76.8401514,65.3505581 76.8401514,63.8747558 L76.8401514,60.1726578 M82.3854383,59.9812569 C82.4414676,59.1385625 82.3909487,58.2918718 82.2351727,57.4628229 C81.9694901,56.6681941 81.2463709,56.1375544 80.4368323,56.1431195 C80.001217,56.1414992 79.5777536,56.2923146 79.2347071,56.5712973 C78.3767388,57.190832 78.2991823,58.1276895 78.2991823,59.1400999 C78.2991823,60.2683583 78.2991823,61.3966168 78.2652514,62.4845802 C78.2652514,64.2777052 78.2991823,65.3656687 78.7499793,66.0657933 C79.1145421,66.5286428 79.6739175,66.7769454 80.2477884,66.7306599 C80.6656715,66.731714 81.0772002,66.624375 81.4450663,66.4183741 C82.3078819,65.8743923 82.3078819,64.9375349 82.3078819,62.837161 L82.3078819,59.9560725 L82.3854383,59.9812569 Z" id="Shape" fill="#000000" fill-rule="nonzero"></path>
                    <path d="M94.2375141,58.9693445 C94.2375141,57.9272555 94.2375141,57.3488712 94.0320965,56.9749158 C93.6939223,56.4366482 93.0645767,56.1243057 92.404557,56.1671722 C91.9758911,56.1687648 91.5549432,56.275257 91.1825856,56.4763086 C90.4083192,56.9749158 90.4083192,57.7477569 90.4083192,58.6701802 L90.4083192,64.7182851 C90.5715999,65.8750537 90.7770175,66.2141066 91.3037293,66.4933266 C91.6136612,66.6659913 91.9659522,66.7588193 92.3255502,66.7625745 C92.7460628,66.7558332 93.1556415,66.6346694 93.5053847,66.4135495 C94.1532402,65.9498448 94.1953772,65.3764466 94.1953772,63.9504301 L95.8229167,63.9853326 C95.8229167,64.9825469 95.8229167,65.9149423 95.2540679,66.7625745 C94.6009453,67.7248863 93.3789739,67.9941342 92.2412763,67.9941342 C91.2500133,68.0491314 90.2785273,67.7155333 89.5550461,67.0717109 C88.9019234,66.4135495 88.8650536,65.4512376 88.8229167,64.4889258 L88.8229167,58.0419351 C88.8242029,57.7178294 88.8648511,57.3949384 88.9440604,57.0796233 C89.1873844,56.1411558 89.9816849,55.4203251 90.9824351,55.2297907 C91.5144291,55.0971036 92.0602214,55.0201884 92.6099746,55.0004314 C93.3343138,54.9886112 94.0396688,55.2200162 94.6009453,55.6536068 C95.8229167,56.5411276 95.8229167,57.618119 95.7807797,59.0441355 L94.2375141,58.9693445 Z" id="Path" fill="#000000" fill-rule="nonzero"></path>
                    <path d="M100.822917,51.7109309 L98.8229167,51.7109309 L98.8229167,50 L100.822917,50 L100.822917,51.7109309 Z M100.778613,68 L98.8798787,68 L98.8798787,55.4196254 L100.778613,55.4196254 L100.778613,68 Z" id="Shape" fill="#000000" fill-rule="nonzero"></path>
                    <path d="M111.233443,58.9693391 C111.233443,57.9272495 111.233443,57.3488648 111.033443,56.9749092 C110.693775,56.4358357 110.062961,56.1235398 109.401864,56.1671651 C108.975113,56.168252 108.556047,56.2748072 108.186075,56.4763017 C107.41239,56.9749092 107.41239,57.7477508 107.41239,58.6701746 L107.41239,64.7182831 C107.575548,65.8750525 107.775548,66.2141055 108.307127,66.4933257 C108.615186,66.6653683 108.965344,66.7581822 109.322917,66.7625737 C109.743209,66.7563967 110.152644,66.6351841 110.501864,66.4135485 C111.154496,65.9498436 111.191338,65.376445 111.191338,63.9504276 L112.822917,63.9853302 C112.822917,64.9825451 112.822917,65.914941 112.249232,66.7625737 C111.601864,67.7248861 110.380811,67.9941342 109.243969,67.9941342 C108.253452,68.0491314 107.282696,67.7155331 106.559759,67.0717104 C105.907127,66.4135485 105.865022,65.4512361 105.822917,64.4889237 L105.822917,58.0419292 C105.823554,57.7174854 105.865973,57.3943272 105.949232,57.0796168 C106.184441,56.138679 106.979046,55.4151595 107.980811,55.2297831 C108.512482,55.0974495 109.057823,55.0205401 109.607127,55.0004236 C110.332503,54.988715 111.038946,55.2200394 111.601864,55.6535994 C112.817654,56.5411207 112.817654,57.6181128 112.780811,59.0441302 L111.233443,58.9693391 Z" id="Path" fill="#000000" fill-rule="nonzero"></path>
                    <rect id="Rectangle" fill="#000000" fill-rule="nonzero" x="115.822917" y="50" width="2" height="18"></rect>
                    <path d="M124.822917,51.7109309 L122.822917,51.7109309 L122.822917,50 L124.822917,50 L124.822917,51.7109309 Z M124.822917,68 L122.930172,68 L122.930172,55.4196254 L124.822917,55.4196254 L124.822917,68 Z" id="Shape" fill="#000000" fill-rule="nonzero"></path>
                    <path d="M130.238718,49.0416323 L130.238718,55.7340303 C131.040676,55.0939331 131.723825,54.5683249 132.763399,54.5683249 C133.714752,54.5736403 134.608095,55.049951 135.174222,55.8537232 C135.748463,56.7019821 135.748463,57.4617722 135.788066,58.5077846 C135.827669,59.553797 135.822719,60.7195024 135.822719,61.8487795 C135.788066,62.7698949 135.748463,63.7378467 135.70886,64.7005945 C135.658297,65.2239514 135.543485,65.7382229 135.367286,66.2305828 C134.823847,67.3220963 133.7472,68.0043995 132.575286,67.9999786 C131.585215,67.9999786 131.006023,67.5159812 130.204066,66.8342517 L130.12486,67.7969994 L128.822917,67.7969994 L128.822917,49 L130.238718,49 L130.238718,49.0416323 Z M130.164463,64.3987601 C130.191783,64.8270819 130.281955,65.248385 130.431782,65.6477301 C130.761762,66.3977095 131.482482,66.8714987 132.268364,66.8550679 C133.101337,66.8767873 133.848655,66.3198691 134.104945,65.4864048 C134.166499,65.2642225 134.20468,65.0356118 134.218804,64.8046753 C134.223485,64.6964321 134.235061,64.5886403 134.253456,64.4820247 L134.253456,57.7636066 C134.224377,57.6059554 134.212748,57.4452963 134.218804,57.2848348 C134.130762,56.9051722 133.945921,56.5579275 133.684165,56.2804547 C133.307342,55.9539458 132.830752,55.7820113 132.342619,55.7964788 C131.37222,55.726763 130.497338,56.408279 130.278321,57.4045277 C130.245586,57.5493168 130.232257,57.6982041 130.238718,57.8468713 C130.238718,57.9665642 130.199115,58.1278895 130.164463,58.1278895 L130.164463,64.3987601 L130.164463,64.3987601 Z" id="Shape" fill="#000000" fill-rule="nonzero"></path>
                    <path d="M35.4185385,24.3852163 C35.4185385,27.4451122 33.7009537,29.0276442 31.8267656,29.9991987 C34.7921252,31.0008013 36.8229167,32.6684696 36.8229167,36.1139824 C36.8229167,40.6211939 33.1149542,43 27.4923898,43 L15.8229167,43 L15.8229167,18 L27.1438212,18 C32.1955412,18 35.4185385,20.5040064 35.4185385,24.3852163 M31.008387,25.1213942 C31.008387,23.068109 29.4069917,21.911258 26.5578216,21.911258 L20.1572924,21.911258 L20.1572924,28.5669071 L26.2193564,28.5669071 C29.1089402,28.5268429 31.0235421,27.4451122 31.0235421,25.1213942 M32.4279203,35.6382212 C32.4279203,33.5098157 30.7507492,32.2327724 27.2347521,32.2327724 L20.1926545,32.2327724 L20.1926545,39.09375 L27.5328036,39.09375 C30.5638356,39.1288061 32.4127651,37.931891 32.4127651,35.6482372" id="Shape" fill="#3E3092" fill-rule="nonzero"></path>
                    <path d="M58.4551656,43 L52.0812854,34.305 L46.3764292,34.305 L46.3764292,43 L41.8229167,43 L41.8229167,18 L53.3622849,18 C59.3368252,18 62.9827469,21.055 62.9827469,25.92 C62.9827469,30.055 60.3896305,32.565 56.8111298,33.535 L63.8229167,43 L58.4551656,43 Z M53.0044348,22 L46.3919879,22 L46.3919879,30.365 L53.0459247,30.365 C56.3132514,30.365 58.3877446,28.73 58.3877446,26.155 C58.3877446,23.41 56.3858587,21.98 53.0199935,21.98" id="Shape" fill="#3E3092" fill-rule="nonzero"></path>
                    <path d="M92.8229167,43 L88.0280891,43 L85.390158,36.7674419 L73.1573994,36.7674419 L70.4780891,43 L65.8229167,43 L77.202227,17 L81.402227,17 L92.8229167,43 Z M79.2711925,22.3901809 L74.8384339,32.7260982 L83.7660201,32.7260982 L79.2711925,22.3901809 Z" id="Shape" fill="#3E3092" fill-rule="nonzero"></path>
                    <polygon id="Path" fill="#3E3092" fill-rule="nonzero" points="114.451187 18 118.822917 18 118.822917 43 115.077162 43 101.189599 25.225 101.189599 43 96.8229167 43 96.8229167 18 100.916997 18 114.451187 35.27"></polygon>
                    <path d="M137.607398,43 C130.302698,43 124.822917,37.2870406 124.822917,30.0201161 C124.822917,22.8286267 130.18707,17 137.798436,17 C142.423572,17 145.218764,18.6344294 147.626851,20.9276596 L144.806523,24.1965184 C142.795594,22.3307544 140.648928,21.088588 137.768272,21.088588 C132.94707,21.088588 129.493299,25.0514507 129.493299,29.984913 C129.493299,34.9183752 133.012425,38.9617021 137.768272,38.9617021 C140.834939,38.9617021 142.795594,37.7195358 144.992534,35.6978723 L147.822917,38.5694391 C145.183572,41.2499033 142.292862,43 137.607398,43" id="Path" fill="#3E3092" fill-rule="nonzero"></path>
                    <polygon id="Path" fill="#3E3092" fill-rule="nonzero" points="171.624788 21.905 157.257943 21.905 157.257943 28.435 170.014361 28.435 170.014361 32.335 157.257943 32.335 157.257943 39.055 171.822917 39.055 171.822917 43 152.822917 43 152.822917 18 171.624788 18"></polygon>
                    <polygon id="Path" fill="#3E3092" fill-rule="nonzero" points="10.8229167 21.905 10.8229167 18 8.12878038 18 3.474792 18 0.822916667 18 0.822916667 21.905 3.474792 21.905 3.474792 39.095 0.822916667 39.095 0.822916667 43 3.474792 43 8.12878038 43 10.8229167 43 10.8229167 39.095 8.12878038 39.095 8.12878038 21.905"></polygon>
                    <path d="M179.822917,42.77 C180.022179,42.69 180.225131,42.54 180.424393,42.46 L180.822917,42.23 C180.479743,42.47 180.16609,42.62 179.822917,42.77 Z" id="Path"></path>
                    <path d="M179.822917,42.77 C180.022179,42.69 180.225131,42.54 180.424393,42.46 L180.822917,42.23 C180.479743,42.47 180.16609,42.62 179.822917,42.77 Z" id="Path"></path>
                    <path d="M179.822917,42.19 C179.487341,42.337711 179.148527,42.4412052 178.808055,42.5 C178.608479,42.58 178.41315,42.58 178.247545,42.65 C178.103836,42.6641264 177.961323,42.7178253 177.822917,42.81 L177.886611,42.81 C177.954551,42.81 177.984275,42.81 178.018246,42.73 C178.052216,42.65 178.183851,42.65 178.247545,42.65 C178.303248,42.6338042 178.358533,42.6104358 178.41315,42.58 C178.918458,42.49 179.364318,42.34 179.822917,42.19 Z" id="Path"></path>
                    <path d="M176.977917,42.535 L177.127917,42.535 C177.357917,42.535 177.517917,42.465 177.667917,42.465 C177.437917,42.465 177.207917,42.535 176.977917,42.535 Z" id="Path" fill="url(#linearGradient-1)" fill-rule="nonzero"></path>
                    <path d="M176.977917,42.535 L177.127917,42.535 C177.357917,42.535 177.517917,42.465 177.667917,42.465 C177.437917,42.465 177.207917,42.535 176.977917,42.535 Z" id="Path" fill="url(#linearGradient-2)" fill-rule="nonzero"></path>
                    <path d="M177.212917,42.54 L177.052917,42.54 C177.212917,42.54 177.362917,42.46 177.592917,42.46 C177.522917,42.54 177.442917,42.54 177.212917,42.54 Z" id="Path" fill="url(#linearGradient-3)" fill-rule="nonzero"></path>
                    <path d="M176.897917,42.5363525 C177.207917,42.5363525 177.517917,42.4663525 177.747917,42.4663525 C177.565103,42.4551314 177.381827,42.4788894 177.207917,42.5363525 L176.897917,42.5363525 Z" id="Path" fill="url(#linearGradient-4)" fill-rule="nonzero"></path>
                    <path d="M180.822917,41.345 C180.50527,41.425 180.187623,41.575 179.822917,41.655 C180.063178,41.5706091 180.307161,41.5204352 180.552328,41.505 C180.633997,41.4166865 180.726638,41.3619074 180.822917,41.345 L180.822917,41.345 Z" id="Path" fill="url(#linearGradient-5)" fill-rule="nonzero"></path>
                    <path d="M180.822917,41.345 C180.50527,41.425 180.187623,41.575 179.822917,41.655 C180.063178,41.5706091 180.307161,41.5204352 180.552328,41.505 C180.633997,41.4166865 180.726638,41.3619074 180.822917,41.345 L180.822917,41.345 Z" id="Path" fill="url(#linearGradient-6)" fill-rule="nonzero"></path>
                    <path d="M177.092917,42.538631 C177.22474,42.5506749 177.357139,42.5228014 177.472917,42.458631 L177.552917,42.458631 C177.408044,42.5212216 177.250414,42.5486354 177.092917,42.538631 Z" id="Path" fill="url(#linearGradient-7)" fill-rule="nonzero"></path>
                    <path d="M177.092917,42.538631 C177.22474,42.5506749 177.357139,42.5228014 177.472917,42.458631 L177.552917,42.458631 C177.408044,42.5212216 177.250414,42.5486354 177.092917,42.538631 Z" id="Path" fill="url(#linearGradient-8)" fill-rule="nonzero"></path>
                    <path d="M178.432917,42.4602836 L178.592917,42.4602836 C178.432917,42.4602836 178.202917,42.5402836 178.052917,42.5402836 C178.171091,42.4828123 178.301602,42.4553362 178.432917,42.4602836 L178.432917,42.4602836 Z" id="Path" fill="url(#linearGradient-9)" fill-rule="nonzero"></path>
                    <path d="M178.432917,42.4602836 L178.592917,42.4602836 C178.432917,42.4602836 178.202917,42.5402836 178.052917,42.5402836 C178.171091,42.4828123 178.301602,42.4553362 178.432917,42.4602836 L178.432917,42.4602836 Z" id="Path" fill="url(#linearGradient-10)" fill-rule="nonzero"></path>
                    <path d="M178.432917,42.4602836 L178.592917,42.4602836 C178.432917,42.4602836 178.202917,42.5402836 178.052917,42.5402836 C178.171091,42.4828123 178.301602,42.4553362 178.432917,42.4602836 L178.432917,42.4602836 Z" id="Path" fill="url(#linearGradient-9)" fill-rule="nonzero"></path>
                    <path d="M180.562643,41.425 L179.822917,41.655 C180.137985,41.575 180.453054,41.425 180.822917,41.345 C180.743617,41.4091704 180.652933,41.4370439 180.562643,41.425 Z" id="Path" fill="url(#linearGradient-11)" fill-rule="nonzero"></path>
                    <path d="M180.562643,41.425 L179.822917,41.655 C180.137985,41.575 180.453054,41.425 180.822917,41.345 C180.743617,41.4091704 180.652933,41.4370439 180.562643,41.425 Z" id="Path" fill="url(#linearGradient-12)" fill-rule="nonzero"></path>
                    <path d="M181.129847,41.535 C181.367471,41.455 181.595194,41.455 181.822917,41.385 C181.58547,41.3974917 181.351513,41.4481268 181.129847,41.535 C181.02142,41.5245659 180.912805,41.5528761 180.822917,41.615 C180.902125,41.535 180.981333,41.535 181.129847,41.535 Z" id="Path" fill="url(#linearGradient-13)" fill-rule="nonzero"></path>
                    <path d="M181.129847,41.535 C181.367471,41.455 181.595194,41.455 181.822917,41.385 C181.58547,41.3974917 181.351513,41.4481268 181.129847,41.535 C181.02142,41.5245659 180.912805,41.5528761 180.822917,41.615 C180.902125,41.535 180.981333,41.535 181.129847,41.535 Z" id="Path" fill="url(#linearGradient-14)" fill-rule="nonzero"></path>
                    <path d="M181.129847,41.535 C181.367471,41.455 181.595194,41.455 181.822917,41.385 C181.58547,41.3974917 181.351513,41.4481268 181.129847,41.535 C181.02142,41.5245659 180.912805,41.5528761 180.822917,41.615 C180.902125,41.535 180.981333,41.535 181.129847,41.535 Z" id="Path" fill="url(#linearGradient-15)" fill-rule="nonzero"></path>
                    <path d="M202.029813,8.23 C202.090158,8.23 202.090158,8.3 202.159124,8.3 C202.357399,8.54 202.624641,8.77 202.822917,9 C202.508619,8.64187818 202.174581,8.30784027 201.822917,8 L202.029813,8.24 L202.029813,8.23 Z" id="Path"></path>
                    <path d="M202.857917,9.075 C203.167917,9.385 203.477917,9.615 203.787917,9.925 C203.458441,9.66373983 203.14768,9.37971072 202.857917,9.075 L202.857917,9.075 Z" id="Path" fill="url(#linearGradient-16)" fill-rule="nonzero"></path>
                    <path d="M202.407421,8.54 C202.327421,8.54 202.327421,8.46 202.257421,8.46 C202.187421,8.46 202.327421,8.54 202.407421,8.54 Z" id="Path" fill="url(#linearGradient-17)" fill-rule="nonzero"></path>
                    <path d="M202.407421,8.54 C202.327421,8.54 202.327421,8.46 202.257421,8.46 C202.187421,8.46 202.327421,8.54 202.407421,8.54 Z" id="Path" fill="url(#linearGradient-18)" fill-rule="nonzero"></path>
                    <path d="M201.977917,8.19 C202.207917,8.42 202.437917,8.57 202.667917,8.81 L202.667917,8.81 C202.387917,8.58 202.157917,8.42 201.977917,8.19 Z" id="Path" fill="url(#linearGradient-19)" fill-rule="nonzero"></path>
                    <path d="M201.977917,8.19 C202.207917,8.42 202.437917,8.57 202.667917,8.81 L202.667917,8.81 C202.387917,8.58 202.157917,8.42 201.977917,8.19 Z" id="Path" fill="url(#linearGradient-20)" fill-rule="nonzero"></path>
                    <path d="M192.899021,28 C193.357191,26.9740358 193.65138,25.8865056 193.771476,24.7747911 C194.720913,15.9042241 182.480877,6.99887057 160.926096,6 C160.926096,6 153.192035,8.72328891 153.864339,8.68850237 C177.836335,8.14682629 195.013442,18.205105 192.899021,28 Z" id="Path" fill="url(#linearGradient-21)" fill-rule="nonzero"></path>
                    <path d="M177.564831,38.6781143 L174.822917,42 C174.822917,42 178.418446,41.305651 181.817385,40.3015923 C192.650534,36.9797065 201.326365,30.1111458 201.807493,20.3802685 C202.009257,16.7137059 200.208905,13.1270684 197.730836,10 C199.511451,12.6150251 200.469212,15.6722023 200.48827,18.8017484 C200.446883,27.9082111 190.296626,34.701842 177.564831,38.6781143 Z" id="Path" fill="url(#linearGradient-22)" fill-rule="nonzero"></path>
                    <path d="M187.674681,2.94422166 C187.125155,2.78600073 185.78696,2.46955888 184.845644,2.23477944 C184.408059,2.11738972 184.056974,2.03572731 183.89924,2 L183.822917,2 C191.76559,6.45570543 197.561044,13.3153482 197.561044,20.4557054 C197.561044,23.8089683 195.673324,26.3711265 193.592252,29.2088954 L193.592252,29.2088954 C193.434518,29.484506 193.236078,29.7192855 193.042727,30 C196.146526,27.4480496 198.822917,23.2169158 198.822917,19.6288735 C198.761858,12.5650747 195.184857,7.35909588 187.674681,2.94422166 Z" id="Path" fill="url(#linearGradient-23)" fill-rule="nonzero"></path>
                    <path d="M194.437917,27.265 C194.367917,27.425 194.287917,27.575 194.207917,27.735 C194.207917,27.655 194.287917,27.655 194.287917,27.575 C194.287917,27.495 194.367917,27.345 194.437917,27.265 Z" id="Path" fill="url(#linearGradient-24)" fill-rule="nonzero"></path>
                    <path d="M195.207917,24.805 C195.287917,24.575 195.367917,24.425 195.437917,24.195 C195.327917,24.425 195.207917,24.585 195.207917,24.805 Z" id="Path" fill="url(#linearGradient-25)" fill-rule="nonzero"></path>
                    <path d="M195.207917,24.805 C195.287917,24.575 195.367917,24.425 195.437917,24.195 C195.327917,24.425 195.207917,24.585 195.207917,24.805 Z" id="Path" fill="url(#linearGradient-26)" fill-rule="nonzero"></path>
                    <path d="M195.207917,24.805 C195.287917,24.575 195.367917,24.425 195.437917,24.195 C195.327917,24.425 195.207917,24.585 195.207917,24.805 Z" id="Path" fill="url(#linearGradient-25)" fill-rule="nonzero"></path>
                    <path d="M195.207917,24.805 C195.287917,24.575 195.367917,24.425 195.437917,24.195 C195.327917,24.425 195.207917,24.585 195.207917,24.805 Z" id="Path" fill="url(#linearGradient-27)" fill-rule="nonzero"></path>
                    <path d="M193.515986,29.3506494 C193.595194,29.2987013 193.664501,29.1493506 193.822917,29 C193.515986,29.2987013 193.288263,29.5519481 192.981333,29.8051948 C192.902125,29.9025974 192.822917,29.9545455 192.822917,30 C193.005094,29.7628055 193.238525,29.5441 193.515986,29.3506494 L193.515986,29.3506494 Z" id="Path" fill="url(#linearGradient-28)" fill-rule="nonzero"></path>
                    <path d="M193.822917,29 L193.822917,29 C194.1969,28.6650718 194.513974,28.3349282 194.822917,28 L194.074949,28.7799043 C193.944868,28.8277512 193.822917,28.9043062 193.822917,29 Z" id="Path" fill="url(#linearGradient-29)" fill-rule="nonzero"></path>
                    <path d="M193.822917,29 L193.822917,29 C194.1969,28.6650718 194.513974,28.3349282 194.822917,28 L194.074949,28.7799043 C193.944868,28.8277512 193.822917,28.9043062 193.822917,29 Z" id="Path" fill="url(#linearGradient-30)" fill-rule="nonzero"></path>
                    <path d="M193.822917,29 C193.624641,29.2108844 193.357399,29.4761905 193.159124,29.6802721 C193.159124,29.6802721 193.219468,29.5782313 193.288434,29.4761905 L193.219468,29.5238095 L192.822917,30 C193.19104,29.6892788 193.525542,29.3547766 193.822917,29 L193.822917,29 Z" id="Path" fill="url(#linearGradient-31)" fill-rule="nonzero"></path>
                    <path d="M193.822917,29 C193.624641,29.2108844 193.357399,29.4761905 193.159124,29.6802721 C193.159124,29.6802721 193.219468,29.5782313 193.288434,29.4761905 L193.219468,29.5238095 L192.822917,30 C193.19104,29.6892788 193.525542,29.3547766 193.822917,29 L193.822917,29 Z" id="Path" fill="url(#linearGradient-32)" fill-rule="nonzero"></path>
                    <path d="M195.361618,24.265 C195.361618,24.425 195.281618,24.575 195.281618,24.735 C195.345787,24.5870743 195.373233,24.4258252 195.361618,24.265 Z" id="Path"></path>
                    <path d="M196.187442,25.190276 C196.228215,25.0725644 196.268989,24.995796 196.304665,24.8780844 C196.304665,24.8371413 196.304665,24.8371413 196.345439,24.7961981 L196.345439,24.755255 C196.386212,24.6784866 196.386212,24.5966003 196.426986,24.5198318 C196.573736,23.9343223 196.679328,23.3391805 196.742981,22.7388046 C196.807356,22.1354688 196.832892,21.5285904 196.819431,20.9219521 L196.819431,20.881009 C196.809909,20.5898033 196.784387,20.2993475 196.742981,20.0109669 L196.742981,19.959788 C195.540162,10.3227929 183.328497,2.92743557 169.623502,0.0409431548 C169.307507,0.0409431548 168.996609,0 168.665325,0 L167.090448,0 C166.932451,0 165.561442,0.0409431548 165.867243,0.0409431548 C178.858701,2.55894718 189.43433,8.50082252 193.883738,15.5839883 C193.924512,15.6607567 194.000962,15.7375251 194.041736,15.8194114 C194.15896,16.0548346 194.316957,16.2544325 194.434181,16.4898556 C194.474954,16.5717419 194.515728,16.6075672 194.515728,16.6894535 C195.777871,18.9492574 196.327048,21.5405912 196.090604,24.1206361 C196.096525,24.2029447 196.082536,24.2854703 196.049831,24.3611771 C195.930554,25.2795425 195.706528,26.1810932 195.382165,27.0480717 C195.334529,27.1362902 195.29528,27.2288216 195.264941,27.3244379 C195.224167,27.4063243 195.183394,27.4830927 195.147717,27.564979 C195.11204,27.6468653 195.06617,27.7236337 194.98972,27.8004021 C194.913269,27.8771705 194.948946,27.9181137 194.908173,28 C195.462994,27.1279133 195.89359,26.1821732 196.187442,25.190276 L196.187442,25.190276 Z" id="Path" fill="url(#linearGradient-33)" fill-rule="nonzero"></path>
                    <path d="M195.914277,24.4188999 C195.873121,24.4955924 195.873121,24.5773977 195.837109,24.6540903 L195.837109,24.6949929 C195.837109,24.7358956 195.837109,24.7358956 195.795952,24.7716855 C195.754795,24.8943935 195.718783,24.971086 195.677627,25.0886812 C195.355721,26.0739286 194.942377,27.0273113 194.442927,27.9365303 L194.442927,27.9365303 C194.247433,28.2893159 194.046795,28.6472144 193.810144,29 C195.914277,26.1572638 197.822917,23.5906206 197.822917,20.231488 C197.822917,13.073519 191.901505,6.20698166 183.932549,1.73836389 C181.874717,1.30377292 179.636825,0.950987306 177.332053,0.633991537 C174.548835,0.316995769 171.647291,0.122708039 168.822917,0 C182.636115,2.88875176 194.96253,10.2767983 196.156073,19.8633639 L196.156073,19.9451693 C196.192085,20.2212623 196.192085,20.4973554 196.233241,20.8143512 L196.233241,20.8859309 C196.265778,21.4937125 196.239938,22.1031928 196.156073,22.7061001 C196.165822,23.2860702 196.084237,23.8639872 195.914277,24.4188999 Z" id="Path" fill="url(#linearGradient-34)" fill-rule="nonzero"></path>
                    <path d="M194.194023,16.7249357 C194.153075,16.6478149 194.112128,16.6066838 194.112128,16.529563 C193.996192,16.2946454 193.864515,16.0679032 193.718006,15.8508997 C193.678444,15.7638247 193.624832,15.6839139 193.559334,15.6143959 C189.090916,8.50385604 178.470106,2.50385604 165.438499,0 L164.450636,0 C147.559709,0.318766067 133.284316,6.20051414 127.822917,14.3958869 C134.07256,8.62210797 145.711944,4.73007712 159.019947,4.73007712 C178.981952,4.73007712 195.094873,13.3881748 195.094873,24.1182519 C195.093057,26.2014583 194.501951,28.2412595 193.390424,30 L193.630992,29.6401028 L193.666821,29.5989717 C193.825548,29.3980268 193.970887,29.1867701 194.101891,28.966581 C194.260563,28.6478149 194.501131,28.251928 194.659803,27.9383033 C194.707214,27.8542562 194.760225,27.7735238 194.818476,27.6966581 C194.854305,27.6195373 194.895252,27.5372751 194.9362,27.4601542 C194.980674,27.3699372 195.01998,27.2772411 195.053925,27.1825193 C195.379674,26.311561 195.604657,25.4058717 195.724443,24.4832905 C195.724443,24.4010283 195.765391,24.3239075 195.765391,24.2416452 C196.011614,21.6340407 195.463646,19.0128077 194.194023,16.7249357 Z" id="Path" fill="url(#linearGradient-35)" fill-rule="nonzero"></path>
                    <path d="M193.822917,28 C194.070638,27.7962542 194.294118,27.5840536 194.491981,27.3647059 L194.822917,27 C194.657449,27.1803922 194.161046,27.6980392 193.822917,28 Z" id="Path" fill="url(#linearGradient-36)" fill-rule="nonzero"></path>
                    <path d="M193.822917,28 C194.070638,27.7962542 194.294118,27.5840536 194.491981,27.3647059 L194.822917,27 C194.657449,27.1803922 194.161046,27.6980392 193.822917,28 Z" id="Path" fill="url(#linearGradient-37)" fill-rule="nonzero"></path>
                    <path d="M193.822917,28 C194.070638,27.7962542 194.294118,27.5840536 194.491981,27.3647059 L194.822917,27 C194.657449,27.1803922 194.161046,27.6980392 193.822917,28 Z" id="Path" fill="url(#linearGradient-38)" fill-rule="nonzero"></path>
                    <path d="M201.822917,8 C201.631644,7.80645161 201.205907,7.37096774 201.057824,7.25 C201.030563,7.25 201.008463,7.22111515 201.008463,7.18548387 C200.965273,7.18548387 200.965273,7.12096774 200.915912,7.12096774 C200.866551,7.12096774 200.866551,7.12096774 200.866551,7.06451613 C200.853942,7.06468529 200.841907,7.05764422 200.833603,7.04524114 C200.8253,7.03283805 200.821558,7.01631166 200.82336,7 L200.82336,7 C200.908791,7.11821711 201.00398,7.22369927 201.107185,7.31451613 C201.39101,7.55645161 201.631644,7.80645161 201.822917,8 Z" id="Path" fill="url(#linearGradient-39)" fill-rule="nonzero"></path>
                    <path d="M177.832969,43 C178.531637,42.8784676 179.190094,42.7939234 179.843525,42.672391 C180.300243,42.6017327 180.753213,42.5064953 181.20065,42.3870542 C183.780052,41.8400345 186.313211,41.074887 188.775417,40.0990753 C191.987368,38.8156549 195.02832,37.1018063 197.822917,35 C193.550486,37.9379128 188.152145,40.2840159 182.095347,41.7371202 C180.698011,42.1809775 179.260464,42.5931308 177.822917,43 L177.832969,43 Z" id="Path" fill="url(#linearGradient-40)" fill-rule="nonzero"></path>
                    <path d="M199.945594,6.82214295 C196.561662,5.15150042 192.99718,3.86918774 189.321072,3 C197.329222,7.44897439 202.284938,13.6357498 202.284938,20.7602242 C202.284938,24.3275577 201.017793,27.6910434 198.796442,30.7640464 C197.330738,32.9103538 195.459534,34.7535975 193.286671,36.1914894 C190.270148,38.4389094 186.104474,40.0544018 181.707943,41.3896038 C180.917901,41.5883552 180.12273,41.7463371 179.332688,41.8992228 C179.05566,41.9399924 177.111337,42.332399 176.357206,42.4496114 C176.357206,42.4496114 174.30515,42.8827876 173.822917,43 C174.612958,42.9592305 175.361959,42.8827876 176.12122,42.8012486 C176.175927,42.7987162 176.229759,42.786641 176.280254,42.7655752 C176.475199,42.7655752 176.634234,42.7248057 176.834309,42.7248057 L176.834309,42.7248057 C176.598323,42.7655752 176.321295,42.7655752 176.080179,42.8012486 L176.028877,42.8012486 C176.064788,42.8012486 176.14687,42.7655752 176.187912,42.7655752 C176.374991,42.7580512 176.560727,42.7307167 176.741967,42.6840362 L176.659885,42.6840362 C176.783008,42.6840362 176.901001,42.6483628 177.018994,42.6483628 C177.099856,42.6547049 177.181022,42.6406825 177.254981,42.6075933 C177.414015,42.5668238 177.614091,42.5668238 177.767995,42.5260543 C177.921899,42.4852847 178.245098,42.4903809 178.440043,42.4496114 C178.835064,42.4088419 179.271126,42.332399 179.671277,42.2916295 C179.964724,42.2551726 180.255888,42.2024294 180.543401,42.1336476 C183.244078,41.572195 185.894712,40.7950491 188.469469,39.8097847 C191.747769,38.5699223 194.851445,36.915306 197.703722,34.8868646 C203.490521,30.6723149 206.937976,25.2397758 206.819982,19.5320423 C206.72251,14.8945089 203.793199,10.1703402 199.945594,6.82214295 Z" id="Path" fill="url(#linearGradient-41)" fill-rule="nonzero"></path>
                    <polygon id="Path" fill="url(#linearGradient-42)" fill-rule="nonzero" points="201.327917 7.5 201.397917 7.58 201.247917 7.42 201.247917 7.42"></polygon>
                    <path d="M201.592917,7.73 C201.456404,7.58025566 201.297929,7.45212627 201.122917,7.35 C201.052917,7.35 201.052917,7.27 201.052917,7.27 C201.202917,7.42 201.362917,7.5 201.512917,7.66 L201.592917,7.73 Z" id="Path" fill="url(#linearGradient-43)" fill-rule="nonzero"></path>
                    <path d="M201.592917,7.73 C201.456404,7.58025566 201.297929,7.45212627 201.122917,7.35 C201.052917,7.35 201.052917,7.27 201.052917,7.27 C201.202917,7.42 201.362917,7.5 201.512917,7.66 L201.592917,7.73 Z" id="Path" fill="url(#linearGradient-44)" fill-rule="nonzero"></path>
                    <path d="M201.167917,7.38999571 C201.087917,7.38999571 201.087917,7.30999571 200.937917,7.22999571 C201.073708,7.37937425 201.228336,7.51047211 201.397917,7.61999571 C201.472382,7.71538215 201.586908,7.77079773 201.707917,7.76999571 C201.477917,7.69999571 201.397917,7.53999571 201.167917,7.38999571 Z" id="Path" fill="url(#linearGradient-45)" fill-rule="nonzero"></path>
                    <path d="M201.167917,7.38999571 C201.087917,7.38999571 201.087917,7.30999571 200.937917,7.22999571 C201.073708,7.37937425 201.228336,7.51047211 201.397917,7.61999571 C201.472382,7.71538215 201.586908,7.77079773 201.707917,7.76999571 C201.477917,7.69999571 201.397917,7.53999571 201.167917,7.38999571 Z" id="Path" fill="url(#linearGradient-46)" fill-rule="nonzero"></path>
                    <path d="M201.050008,7.18525896 C200.96513,7.13570158 200.888511,7.07319585 200.822917,7 C201.283076,7.4123506 202.018136,8.10557769 202.161562,8.24302789 C202.66953,8.75099602 203.26714,9.40239044 203.822917,10 C202.9693,8.99464737 202.042468,8.05383208 201.050008,7.18525896 L201.050008,7.18525896 Z" id="Path" fill="url(#linearGradient-47)" fill-rule="nonzero"></path>
                    <path d="M201.050008,7.18525896 C200.96513,7.13570158 200.888511,7.07319585 200.822917,7 C201.283076,7.4123506 202.018136,8.10557769 202.161562,8.24302789 C202.66953,8.75099602 203.26714,9.40239044 203.822917,10 C202.9693,8.99464737 202.042468,8.05383208 201.050008,7.18525896 L201.050008,7.18525896 Z" id="Path" fill="url(#linearGradient-48)" fill-rule="nonzero"></path>
                    <path d="M201.050008,7.18525896 C200.96513,7.13570158 200.888511,7.07319585 200.822917,7 C201.283076,7.4123506 202.018136,8.10557769 202.161562,8.24302789 C202.66953,8.75099602 203.26714,9.40239044 203.822917,10 C202.9693,8.99464737 202.042468,8.05383208 201.050008,7.18525896 L201.050008,7.18525896 Z" id="Path" fill="url(#linearGradient-49)" fill-rule="nonzero"></path>
                    <path d="M205.822917,11 C206.174062,11.6451613 206.498489,12.3483871 206.822917,13 L205.822917,11 Z" id="Path"></path>
                    <path d="M204.822917,11 L205.822917,12 L204.822917,11 Z" id="Path"></path>
                    <path d="M204.167917,9.385 C204.247917,9.465 204.397917,9.535 204.477917,9.615 C204.397917,9.535 204.247917,9.465 204.167917,9.385 Z" id="Path"></path>
                    <path d="M204.932917,10.15 C205.172917,10.38 205.472917,10.62 205.712917,10.85 C205.437575,10.6343486 205.176992,10.4004915 204.932917,10.15 Z" id="Path"></path>
                    <path d="M202.092917,7.345 C202.242917,7.425 202.402917,7.575 202.552917,7.655 C202.384244,7.57648508 202.229004,7.4718673 202.092917,7.345 L202.092917,7.345 Z" id="Path"></path>
                    <path d="M201.188706,7.425 L201.188706,7.425 C201.108706,7.425 201.188706,7.425 201.338706,7.505 L201.338706,7.505 C201.338706,7.505 201.418706,7.505 201.418706,7.575 L201.488706,7.575 L201.338706,7.425 L201.188706,7.425 Z" id="Path"></path>
                    <path d="M209.817397,21.439554 C209.97602,17.0337441 206.696097,11.8782277 202.541186,8.38644366 L202.464432,8.30428404 C202.390288,8.21680003 202.29521,8.14965629 202.188121,8.10915493 C201.952744,7.94997066 201.753185,7.74970657 201.517809,7.59565728 C201.517809,7.59565728 201.159627,7.31836854 201.082873,7.2413439 C200.972521,7.14814262 200.852425,7.06722188 200.724691,7 C200.765626,7.04107981 200.806562,7.11810446 200.84238,7.15918427 C201.476874,7.75484155 202.940303,9.02318075 203.057991,9.14128521 C204.126627,10.2065942 205.069247,11.3920501 205.867161,12.6741491 C207.273666,14.8844838 208.065162,17.4322552 208.159526,20.0531103 C208.394903,30.0919894 197.004716,38.6263204 181.822917,42 C197.879703,38.939554 209.464332,30.7646714 209.817397,21.439554 Z" id="Path" fill="url(#linearGradient-50)" fill-rule="nonzero"></path>
                    <path d="M210.281266,23 C210.3478,22.6681843 210.374533,22.3340247 210.361266,22 L210.361266,22 C210.374533,22.3340247 210.3478,22.6681843 210.281266,23 Z" id="Path" fill="url(#linearGradient-51)" fill-rule="nonzero"></path>
                    <path d="M208.392361,13.9080119 C208.211806,13.5768546 207.998843,13.2884273 207.822917,13 C207.998843,13.2884273 208.179398,13.6195846 208.392361,13.9080119 C209.929398,16.578635 210.822917,19.3560831 210.822917,22 L210.822917,22 C210.790509,19.3186944 209.929398,16.5519288 208.392361,13.9080119 Z" id="Path" fill="url(#linearGradient-52)" fill-rule="nonzero"></path>
                    <path d="M208.196201,13.5423387 C207.99818,13.2298387 207.764618,12.9173387 207.571675,12.6451613 C207.156286,12.1015922 206.71046,11.5816197 206.236306,11.0877016 L206.236306,11.0877016 L205.647323,10.5030242 L205.373141,10.2308468 C205.250891,10.1062774 205.12027,9.9900833 204.982177,9.88306452 C204.79061,9.68024558 204.579764,9.49626034 204.352574,9.33366935 C204.311954,9.2983871 204.235793,9.25806452 204.195173,9.21774194 C203.920991,8.9858871 203.606189,8.71370968 203.291388,8.47681452 L203.291388,8.47681452 C203.006936,8.23713539 202.7067,8.01655199 202.39268,7.81653226 C202.31144,7.77620968 202.235279,7.70060484 202.15404,7.66028226 C201.839238,7.42842742 201.529514,7.23185484 201.174092,7 L201.097931,7 C201.133473,7 201.133473,7.04032258 201.174092,7.07560484 L201.174092,7.07560484 C201.214712,7.07560484 201.214712,7.11592742 201.250254,7.11592742 L201.290874,7.15625 C201.407655,7.23185484 201.763076,7.50403226 201.920477,7.61995968 C201.839238,7.54435484 201.722457,7.50403226 201.646295,7.42842742 C201.722457,7.46875 201.763076,7.54435484 201.803696,7.54435484 C202.037258,7.70060484 202.235279,7.89717742 202.468841,8.0483871 C202.542111,8.13577596 202.636419,8.20338911 202.743023,8.24495968 L202.819185,8.32560484 C206.942072,11.7127016 210.196715,16.8135081 210.039314,21.1381048 C209.724512,30.2913306 198.193631,38.3104839 182.301224,41.2993952 C182.027042,41.3346774 181.712241,41.4153226 181.438058,41.4556452 C181.321277,41.4909274 181.204496,41.4909274 181.087715,41.53125 C180.847306,41.5663806 180.609748,41.6185982 180.376872,41.6875 L180.376872,41.6875 L180.884617,41.5715726 L180.884617,41.5715726 C180.677649,41.6165956 180.466826,41.6419119 180.255013,41.6471774 L178.569301,41.8840726 C178.49314,41.8840726 178.45252,41.9193548 178.371281,41.9193548 L178.295119,41.9193548 C178.226794,41.9166492 178.158833,41.9304881 178.097099,41.9596774 C178.020937,41.9596774 177.939698,42 177.822917,42 L177.904156,42 C178.4119,41.9193548 178.960265,41.8840726 179.473087,41.8034274 C196.345441,39.5453629 209.567111,32.1461694 210.740001,22.6804435 C210.740001,22.5241935 210.780621,22.4082661 210.780621,22.2520161 L210.780621,22.1764113 C210.814403,21.8920934 210.827977,21.6057671 210.821241,21.3195565 C210.758854,18.5232435 209.843552,15.811474 208.196201,13.5423387 Z" id="Path" fill="url(#linearGradient-53)" fill-rule="nonzero"></path>
                    <path d="M201.207917,7.42 L201.207917,7.42 C201.276695,7.48386246 201.354121,7.53772433 201.437917,7.58 L201.367917,7.5 C201.287917,7.5 201.287917,7.42 201.207917,7.42 Z" id="Path" fill="url(#linearGradient-54)" fill-rule="nonzero"></path>
                    <path d="M201.207917,7.42 L201.207917,7.42 C201.276695,7.48386246 201.354121,7.53772433 201.437917,7.58" id="Path" fill="url(#linearGradient-55)" fill-rule="nonzero"></path>
                    <path d="M176.412196,17.0008927 C177.780212,17.0497889 178.854512,18.1899512 178.822207,19.558655 C178.789901,20.9273589 177.663005,22.0155514 176.294205,21.9998318 C174.925405,21.9841123 173.82379,20.8703271 173.822917,19.5012422 C173.828667,18.8243008 174.106214,18.1780765 174.593154,17.7078598 C175.080095,17.237643 175.735565,16.9828957 176.412196,17.0008927 Z M176.412196,21.4658026 C177.223341,21.5022993 177.97505,21.0414233 178.310556,20.30191 C178.646062,19.5623967 178.497826,18.6931131 177.936202,18.106628 C177.374578,17.5201429 176.512623,17.3345182 175.759428,17.6378527 C175.006233,17.9411873 174.513419,18.6724188 174.514879,19.4844988 C174.488925,20.0045114 174.67712,20.5124532 175.035618,20.8899841 C175.394116,21.2675149 175.891611,21.4816666 176.412196,21.482546 L176.412196,21.4658026 Z M175.418895,18.0724711 L176.501481,18.0724711 C177.187863,18.0724711 177.61755,18.2901354 177.61755,18.8928983 C177.639252,19.0936818 177.568433,19.2934335 177.425109,19.4356921 C177.281784,19.5779507 177.081528,19.6472592 176.880944,19.6240273 L177.62313,20.8630398 L177.014873,20.8630398 L176.32849,19.6575141 L175.982509,19.6575141 L175.982509,20.8630398 L175.424475,20.8630398 L175.424475,18.0724711 L175.418895,18.0724711 Z M175.976929,19.2779967 L176.495901,19.2779967 C176.797239,19.2779967 177.053935,19.2389288 177.053935,18.8928983 C177.053935,18.5468678 176.752596,18.5468678 176.495901,18.5468678 L176.015991,18.5468678 L176.015991,19.2779967 L175.976929,19.2779967 Z" id="Shape" fill="#3E3092" fill-rule="nonzero"></path>
                    <path d="M202.808725,9.45419131 C202.693274,9.33804646 201.568886,8.32304141 200.946456,7.73726735 C200.832932,7.61651581 200.702769,7.51277957 200.559948,7.42923099 C200.519791,7.42923099 200.519791,7.38883278 200.479635,7.38883278 C200.393827,7.3290623 200.303152,7.27669489 200.208577,7.23228971 L199.741755,7 C203.526526,10.3076035 206.417811,15.0341942 206.538281,19.6042418 C206.653731,25.2599913 203.280566,30.643053 197.613448,34.819218 C194.827784,36.8374904 191.789874,38.4776392 188.578185,39.697302 C186.058161,40.6713672 183.464825,41.4413817 180.822917,42 C180.938367,42 181.013661,41.9596018 181.129112,41.9596018 C196.453923,38.7630933 208.089334,30.2542202 207.818276,20.1849661 C207.725707,17.6075965 206.949261,15.1020981 205.5695,12.9284375 C204.79541,11.6600882 203.868088,10.4931161 202.808725,9.45419131 L202.808725,9.45419131 Z" id="Path" fill="url(#linearGradient-56)" fill-rule="nonzero"></path>
                    <path d="M201.062191,7 L201.062191,7 L201.102502,7.04039238 C201.121934,7.06264603 201.148816,7.07701211 201.178085,7.08078477 L201.137774,7.04039238 C201.433299,7.22053359 201.719225,7.41603015 201.994382,7.62608194 C202.070258,7.66364682 202.137256,7.71700948 202.190898,7.78260242 C202.266481,7.81794576 202.347103,7.89873053 202.422686,7.93407386 C202.735096,8.17137911 203.047506,8.36829198 203.319605,8.60054818 L203.319605,8.60054818 C203.632015,8.83280439 203.904114,9.06506059 204.216524,9.34275822 C204.251797,9.37810156 204.332419,9.41849394 204.37273,9.45888632 C204.564207,9.65075014 204.801034,9.80727063 204.992511,10.0041835 C205.108405,10.1203116 205.26461,10.2364397 205.385543,10.3525678 C205.484952,10.4361411 205.576075,10.5291386 205.657642,10.6302654 L206.237112,11.2109059 L206.237112,11.2109059 C206.705727,11.7158107 207.134031,12.266157 207.562335,12.7761108 C207.784832,13.0515506 207.993369,13.3380249 208.187155,13.6344489 C209.86006,16.0882862 210.832563,18.7440854 210.832563,21.2383151 L210.832563,21.2383151 C210.838423,21.5248823 210.826643,21.8115389 210.79729,22.0966532 L210.79729,22.177438 C210.79729,22.3339585 210.756979,22.4500866 210.756979,22.606607 C209.593,32.088719 196.471779,39.5007213 179.72761,41.7677438 L177.822917,42 C196.900083,40.4045009 212.822917,31.8564628 212.822917,21.2484132 C212.747334,16.0529429 207.995678,10.9685516 201.062191,7 Z" id="Path" fill="url(#linearGradient-57)" fill-rule="nonzero"></path>
                </g>
            </g>
        </g>
    </g>
</svg>