<svg width="138" height="60" viewBox="0 0 138 60" fill="none" xmlns="http://www.w3.org/2000/svg">
<path d="M95.912 22.8686C97.1527 22.8686 97.7979 23.6623 97.7979 25.4481C97.7979 25.6218 97.7979 25.7954 97.7731 25.969H93.0085C93.5296 24.1087 94.6215 22.8686 95.912 22.8686ZM95.9368 32.1203C93.8026 32.1451 92.6859 30.7809 92.6859 28.375C92.6859 28.2262 92.6859 28.0525 92.6859 27.9037H101.049C101.222 27.2588 101.322 26.5643 101.322 25.9442C101.322 23.0174 99.535 20.7603 95.8375 20.7603C92.0903 20.7603 88.7402 24.4808 88.7402 28.375C88.7402 32.1203 91.1722 34.3775 95.2419 34.3775C97.0287 34.3775 98.8154 33.7574 100.056 32.8148L99.2869 30.8801C98.3191 31.6491 97.1527 32.0955 95.9368 32.1203Z" fill="#0000C9"/>
<path d="M53.1042 24.6299H51.5904L53.6749 16.9407H55.2631C57.2732 16.9407 58.3899 18.3049 58.3899 20.0908C58.3899 22.9928 56.1317 24.6299 53.1042 24.6299ZM62.8319 19.942C62.8319 16.8911 60.4496 14.6836 56.8513 14.6836H49.8781L44.6172 34.0552H49.0096L50.9452 26.9118H54.7668C59.1592 26.9118 62.8319 24.0842 62.8319 19.942Z" fill="#0000C9"/>
<path d="M68.5654 21.1329L69.0617 19.3471C69.3098 18.4045 69.7317 16.7923 70.3025 14.9568C70.9229 13.0469 72.0148 11.8564 73.5037 11.8564C74.2233 11.8564 74.67 12.1788 74.67 12.7493C74.6452 13.3694 74.1489 13.7166 74.1489 14.684C74.1489 15.8249 75.1167 16.6931 76.3575 16.6931C77.8961 16.6931 79.1617 15.4529 79.1617 13.9151C79.1617 11.5587 77.1516 9.99609 74.0745 9.99609C69.5828 9.99609 66.6049 12.8733 64.7438 19.5951L57.2246 46.9783H61.4929L67.9946 23.266H72.4118L69.5084 34.0556H73.7767L77.2509 21.1329H68.5654Z" fill="#0000C9"/>
<path d="M90.1054 21.1323H78.8391L78.2931 23.2654H83.7278L75.2656 34.055H87.2268L87.7727 31.9219H81.6184L90.1054 21.1323Z" fill="#0000C9"/>
<path d="M112.44 20.9097C110.926 20.9097 109.288 21.9018 108.023 23.9605L108.767 21.1329H104.499L101 34.0556H105.268L106.832 28.2515C107.452 25.8704 109.015 23.5389 110.033 23.5389C111.15 23.5389 110.728 25.6224 112.639 25.6224C114.028 25.6224 114.847 24.3574 114.847 23.1916C114.897 21.8274 113.805 20.9097 112.44 20.9097Z" fill="#0000C9"/>
<path d="M0.298828 25.3989C1.68851 21.4303 9.57989 19.7437 21.0944 21.1327L23.3278 12.9227C11.9374 11.4592 3.62413 13.0963 2.23445 18.305L0.298828 25.3989Z" fill="#0095FF"/>
<path d="M41.8883 16.8667C40.4987 20.8353 32.6073 22.5219 21.0928 21.1329L18.8594 29.3429C30.2498 30.8063 38.563 29.1693 39.9527 23.9605L41.8883 16.8667Z" fill="#0000C9"/>
<path d="M7.59375 8.21C24.4188 9.42538 41.5912 17.7346 39.9782 23.9603L41.4919 18.4043C41.9883 16.668 42.2116 15.7503 42.2116 15.031C42.1868 8.70608 25.6099 0.967342 9.82716 0L7.59375 8.21Z" fill="#0095FF"/>
<path d="M34.5931 34.0554C17.768 32.84 0.595576 24.506 2.2086 18.2803L0.719655 23.8363C0.248157 25.5973 0 26.4903 0 27.2344C0 33.5593 16.5769 41.298 32.3845 42.2654L34.5931 34.0554Z" fill="#0000C9"/>
<path d="M71.468 40.6035C72.2869 40.6035 72.9073 40.7771 73.2796 41.1244C73.6518 41.4716 73.8503 41.9429 73.8503 42.563C73.8503 42.9351 73.7759 43.2575 73.627 43.58C73.4781 43.9024 73.2051 44.1504 72.8329 44.3489C72.4607 44.5473 71.9643 44.6465 71.3439 44.6465H70.7236V47.0029H69.582V40.6283H71.468V40.6035ZM71.3936 41.5461H70.7236V43.6792H71.2447C71.7162 43.6792 72.0636 43.6048 72.3118 43.4311C72.5599 43.2575 72.684 42.9847 72.684 42.5878C72.684 42.2406 72.5847 41.9677 72.3614 41.7941C72.1629 41.6205 71.8403 41.5461 71.3936 41.5461Z" fill="#0000C9"/>
<path d="M77.3746 42.9847H76.2083V46.9781H75.0916V42.9847H74.3223V42.4391L75.0916 42.1166V41.7942C75.0916 41.1741 75.2405 40.7524 75.5382 40.5044C75.836 40.2563 76.2331 40.1323 76.7542 40.1323C76.9776 40.1323 77.2009 40.1571 77.3994 40.1819C77.598 40.2315 77.7469 40.2563 77.8709 40.3059L77.5732 41.1493C77.4739 41.1245 77.3498 41.0997 77.2505 41.0749C77.1265 41.0501 77.0024 41.0253 76.8535 41.0253C76.6302 41.0253 76.4813 41.0997 76.382 41.2237C76.2827 41.3477 76.2331 41.5461 76.2331 41.7942V42.1166H77.3994V42.9847H77.3746Z" fill="#0000C9"/>
<path d="M78.5891 40.2563C78.7629 40.2563 78.9117 40.306 79.0358 40.3804C79.1599 40.4548 79.2344 40.6284 79.2344 40.8516C79.2344 41.0749 79.1599 41.2237 79.0358 41.3229C78.9117 41.4221 78.7629 41.4469 78.5891 41.4469C78.4154 41.4469 78.2665 41.3973 78.1425 41.3229C78.0184 41.2237 77.9688 41.0749 77.9688 40.8516C77.9688 40.6284 78.0184 40.4796 78.1425 40.3804C78.2914 40.306 78.4403 40.2563 78.5891 40.2563ZM79.1599 42.1166V46.9533H78.0432V42.1166H79.1599Z" fill="#0000C9"/>
<path d="M83.7517 46.9782H80.0293V46.2837L82.4116 42.9848H80.1782V42.1167H83.6772V42.8856L81.3445 46.1101H83.7517V46.9782V46.9782Z" fill="#0000C9"/>
<path d="M86.5816 42.042C87.2269 42.042 87.748 42.2404 88.1202 42.6125C88.4925 43.0093 88.691 43.5302 88.691 44.2247V44.7952H85.4898C85.4898 45.2417 85.6138 45.5641 85.862 45.8121C86.0853 46.0602 86.4079 46.1842 86.8298 46.1842C87.1276 46.1842 87.4254 46.1594 87.6735 46.085C87.9217 46.0106 88.1698 45.9362 88.4428 45.8121V46.7051C88.1947 46.8291 87.9465 46.9035 87.6984 46.9531C87.4502 47.0027 87.1276 47.0275 86.7802 47.0275C86.3087 47.0275 85.8868 46.9283 85.5146 46.7547C85.1423 46.5811 84.8694 46.3082 84.6708 45.9362C84.4723 45.5641 84.373 45.1176 84.373 44.5472C84.373 43.7286 84.5716 43.0837 84.9934 42.6621C85.3657 42.2652 85.9116 42.042 86.5816 42.042ZM86.5816 42.8605C86.2839 42.8605 86.0357 42.9597 85.8372 43.1582C85.6386 43.3566 85.5394 43.6294 85.5146 44.0263H87.5991C87.5991 43.7038 87.4998 43.4062 87.3509 43.2078C87.1772 42.9845 86.9291 42.8605 86.5816 42.8605Z" fill="#0000C9"/>
<path d="M92.2142 42.042C92.2886 42.042 92.3879 42.042 92.4624 42.0668C92.5616 42.0668 92.6361 42.0916 92.6857 42.0916L92.5864 43.1334C92.5368 43.1334 92.4624 43.1086 92.3631 43.1086C92.2638 43.1086 92.2142 43.0837 92.1397 43.0837C91.8916 43.0837 91.6683 43.1334 91.4697 43.2326C91.2712 43.3318 91.0975 43.4806 90.9734 43.679C90.8493 43.8775 90.7749 44.1503 90.7749 44.4479V46.9531H89.6582V42.1164H90.5267L90.6756 42.9597H90.7253C90.8742 42.7117 91.0727 42.4885 91.3208 42.3148C91.6186 42.1412 91.8916 42.042 92.2142 42.042Z" fill="#0000C9"/>
<path d="M100.998 43.7288C100.998 44.7953 100.701 45.6139 100.105 46.1595C99.5095 46.7052 98.6657 46.978 97.5738 46.978H95.7871V40.6035H97.7724C98.4424 40.6035 99.0131 40.7275 99.4846 40.9508C99.9561 41.1988 100.353 41.5461 100.601 41.9925C100.85 42.4638 100.998 43.0343 100.998 43.7288ZM99.7824 43.7536C99.7824 42.9847 99.6087 42.439 99.2613 42.0669C98.9139 41.6949 98.4176 41.5212 97.7475 41.5212H96.9038V45.9859H97.5987C99.0628 46.0107 99.7824 45.2666 99.7824 43.7536Z" fill="#0000C9"/>
<path d="M102.661 40.2563C102.835 40.2563 102.984 40.306 103.108 40.3804C103.232 40.4548 103.307 40.6284 103.307 40.8516C103.307 41.0749 103.232 41.2237 103.108 41.3229C102.984 41.4221 102.835 41.4469 102.661 41.4469C102.488 41.4469 102.339 41.3973 102.215 41.3229C102.091 41.2237 102.041 41.0749 102.041 40.8516C102.041 40.6284 102.091 40.4796 102.215 40.3804C102.339 40.306 102.488 40.2563 102.661 40.2563ZM103.232 42.1166V46.9533H102.115V42.1166H103.232Z" fill="#0000C9"/>
<path d="M106.16 42.042C106.781 42.042 107.277 42.29 107.6 42.7613H107.649L107.748 42.1412H108.691V47.0275C108.691 47.722 108.493 48.2429 108.121 48.5902C107.724 48.9374 107.153 49.1358 106.359 49.1358C106.011 49.1358 105.689 49.111 105.391 49.0614C105.093 49.0118 104.82 48.9374 104.572 48.8382V47.9205C104.845 48.0445 105.143 48.1437 105.441 48.1933C105.763 48.2677 106.086 48.2925 106.408 48.2925C106.781 48.2925 107.054 48.1933 107.252 47.9949C107.451 47.7964 107.55 47.4988 107.55 47.1019V46.9779C107.55 46.8787 107.55 46.7795 107.55 46.6555C107.55 46.5315 107.575 46.4322 107.575 46.3578H107.55C107.376 46.6059 107.178 46.7795 106.93 46.9035C106.681 47.0275 106.408 47.0771 106.111 47.0771C105.515 47.0771 105.068 46.8539 104.721 46.4074C104.398 45.961 104.225 45.3657 104.225 44.572C104.225 43.7782 104.398 43.1582 104.721 42.7117C105.093 42.2652 105.565 42.042 106.16 42.042ZM106.458 42.9597C105.763 42.9597 105.416 43.5054 105.416 44.572C105.416 45.6385 105.763 46.1594 106.483 46.1594C106.88 46.1594 107.178 46.0602 107.351 45.8369C107.55 45.6137 107.624 45.2417 107.624 44.7456V44.572C107.624 44.0015 107.525 43.5798 107.351 43.3318C107.153 43.0837 106.855 42.9597 106.458 42.9597Z" fill="#0000C9"/>
<path d="M110.554 40.2563C110.728 40.2563 110.877 40.306 111.001 40.3804C111.125 40.4548 111.199 40.6284 111.199 40.8516C111.199 41.0749 111.125 41.2237 111.001 41.3229C110.877 41.4221 110.728 41.4469 110.554 41.4469C110.38 41.4469 110.231 41.3973 110.107 41.3229C109.983 41.2237 109.934 41.0749 109.934 40.8516C109.934 40.6284 109.983 40.4796 110.107 40.3804C110.231 40.306 110.38 40.2563 110.554 40.2563ZM111.125 42.1166V46.9533H110.008V42.1166H111.125Z" fill="#0000C9"/>
<path d="M114.3 46.1594C114.449 46.1594 114.573 46.1346 114.697 46.1097C114.821 46.0849 114.945 46.0601 115.069 46.0105V46.8539C114.945 46.9035 114.796 46.9531 114.597 47.0027C114.399 47.0275 114.2 47.0523 114.002 47.0523C113.729 47.0523 113.481 47.0027 113.257 46.9283C113.034 46.8291 112.86 46.6802 112.736 46.457C112.612 46.2338 112.538 45.9113 112.538 45.4897V42.9597H111.893V42.4636L112.612 42.0668L112.96 41.0498H113.654V42.1164H115.019V42.9597H113.654V45.4649C113.654 45.6881 113.704 45.8617 113.828 45.9609C113.952 46.1098 114.126 46.1594 114.3 46.1594Z" fill="#0000C9"/>
<path d="M117.848 42.042C118.468 42.042 118.94 42.1908 119.263 42.4637C119.585 42.7365 119.759 43.1582 119.759 43.7286V46.9779H118.965L118.741 46.3082H118.717C118.518 46.5811 118.295 46.7547 118.047 46.8787C117.823 47.0027 117.501 47.0523 117.104 47.0523C116.657 47.0523 116.309 46.9283 116.012 46.6803C115.714 46.4322 115.59 46.0602 115.59 45.5393C115.59 45.0432 115.764 44.6712 116.136 44.4231C116.508 44.1751 117.054 44.0263 117.798 44.0015L118.642 43.9767V43.7286C118.642 43.431 118.568 43.2078 118.419 43.0589C118.27 42.9349 118.071 42.8605 117.798 42.8605C117.55 42.8605 117.327 42.8853 117.104 42.9597C116.88 43.0341 116.657 43.1085 116.434 43.2078L116.086 42.414C116.334 42.29 116.607 42.1908 116.905 42.1164C117.203 42.0668 117.501 42.042 117.848 42.042ZM118.642 44.6712L118.047 44.696C117.55 44.7208 117.203 44.7952 117.029 44.944C116.831 45.0928 116.731 45.2913 116.731 45.5641C116.731 45.7873 116.806 45.961 116.93 46.0602C117.054 46.1594 117.252 46.209 117.451 46.209C117.774 46.209 118.047 46.1098 118.27 45.9362C118.493 45.7377 118.617 45.4649 118.617 45.0928V44.6712H118.642Z" fill="#0000C9"/>
<path d="M122.166 46.9778H121.049V40.1816H122.166V46.9778Z" fill="#0000C9"/>
<path d="M73.702 53.3529C73.702 53.9977 73.4787 54.4938 73.032 54.8411C72.5853 55.1883 71.9649 55.3619 71.146 55.3619H70.4015V57.8423H69.6074V51.4678H71.2949C72.8831 51.4926 73.702 52.1127 73.702 53.3529ZM70.4015 54.6922H71.0467C71.6919 54.6922 72.1386 54.593 72.4364 54.3946C72.7342 54.1962 72.8583 53.8489 72.8583 53.4025C72.8583 52.9808 72.7342 52.6832 72.4612 52.4847C72.1883 52.2863 71.7912 52.1871 71.2204 52.1871H70.4015V54.6922Z" fill="#0095FF"/>
<path d="M75.5617 57.8665H74.7676V51.0703H75.5617V57.8665Z" fill="#0095FF"/>
<path d="M79.9059 57.8666L79.757 57.1969H79.7322C79.4841 57.4945 79.2607 57.693 79.0126 57.817C78.7644 57.941 78.4666 57.9658 78.1192 57.9658C77.6477 57.9658 77.2755 57.8418 77.0025 57.5938C76.7295 57.3457 76.6055 56.9985 76.6055 56.552C76.6055 55.5847 77.3747 55.0638 78.9133 55.0142L79.7322 54.9894V54.7165C79.7322 54.3445 79.6578 54.0964 79.5089 53.9228C79.36 53.7492 79.1118 53.6748 78.7644 53.6748C78.5163 53.6748 78.2681 53.7244 78.0448 53.7988C77.8214 53.8732 77.5981 53.9476 77.3996 54.0468L77.1514 53.4515C77.3996 53.3275 77.6477 53.2283 77.9455 53.1539C78.2433 53.0795 78.5163 53.0547 78.7892 53.0547C79.36 53.0547 79.8067 53.1787 80.0797 53.4267C80.3526 53.6748 80.5015 54.0964 80.5015 54.6421V57.8914H79.9059V57.8666ZM78.2681 57.3209C78.7148 57.3209 79.0622 57.1969 79.3104 56.9737C79.5585 56.7504 79.6826 56.4032 79.6826 55.9567V55.535L78.9878 55.5599C78.4418 55.5847 78.0448 55.6591 77.7966 55.8327C77.5485 56.0063 77.4244 56.2296 77.4244 56.552C77.4244 56.8 77.4988 56.9985 77.6477 57.1225C77.7966 57.2465 77.9951 57.3209 78.2681 57.3209Z" fill="#0095FF"/>
<path d="M83.4301 57.2967C83.5294 57.2967 83.6534 57.2967 83.7775 57.2719C83.9016 57.247 84.0257 57.2222 84.0753 57.1974V57.7927C84.0009 57.8175 83.9016 57.8671 83.7279 57.8919C83.5542 57.9167 83.4301 57.9416 83.2564 57.9416C82.3134 57.9416 81.8419 57.4455 81.8419 56.4533V53.6753H81.1719V53.3033L81.8667 52.9808L82.1893 51.9639H82.6608V53.0552H84.0505V53.6753H82.6608V56.4285C82.6608 56.7014 82.7353 56.9246 82.8593 57.0734C82.9834 57.2222 83.1819 57.2967 83.4301 57.2967Z" fill="#0095FF"/>
<path d="M87.1024 53.675H85.8865V57.842H85.1172V53.675H84.2734V53.3277L85.1172 53.0549V52.7821C85.1172 52.2116 85.2413 51.7651 85.4894 51.4675C85.7376 51.1698 86.1346 51.021 86.6558 51.021C86.9536 51.021 87.2762 51.0706 87.5739 51.1946L87.3754 51.8147C87.1024 51.7155 86.8791 51.6907 86.6558 51.6907C86.3828 51.6907 86.1843 51.7899 86.0602 51.9635C85.9361 52.1372 85.8617 52.41 85.8617 52.7821V53.0797H87.0776V53.675H87.1024Z" fill="#0095FF"/>
<path d="M92.0168 55.4605C92.0168 56.2543 91.8183 56.8496 91.4212 57.296C91.0242 57.7425 90.4782 57.9657 89.7834 57.9657C89.3615 57.9657 88.9645 57.8665 88.6419 57.6681C88.3193 57.4696 88.0463 57.172 87.8726 56.7999C87.6989 56.4279 87.5996 55.9814 87.5996 55.4853C87.5996 54.7164 87.7981 54.0963 88.1952 53.6747C88.5922 53.253 89.1382 53.0298 89.833 53.0298C90.503 53.0298 91.049 53.253 91.446 53.6995C91.8431 54.146 92.0168 54.6916 92.0168 55.4605ZM88.3937 55.4605C88.3937 56.0558 88.5178 56.5271 88.7411 56.8247C88.9645 57.1224 89.3367 57.296 89.7834 57.296C90.2301 57.296 90.5775 57.1472 90.8256 56.8247C91.0738 56.5023 91.1731 56.0558 91.1731 55.4605C91.1731 54.8653 91.049 54.394 90.8008 54.0963C90.5527 53.7987 90.2053 53.6499 89.7586 53.6499C88.8652 53.6499 88.3937 54.2452 88.3937 55.4605Z" fill="#0095FF"/>
<path d="M95.3414 52.9805C95.5648 52.9805 95.7385 53.0053 95.9122 53.0301L95.8129 53.7494C95.6392 53.6998 95.4655 53.6998 95.2918 53.6998C95.0436 53.6998 94.7955 53.7742 94.5969 53.8982C94.3984 54.0222 94.1999 54.2207 94.1006 54.4687C94.0014 54.7167 93.9269 54.9896 93.9269 55.2872V57.842H93.1328V53.0797H93.778L93.8773 53.9478H93.9021C94.0758 53.6254 94.2992 53.4021 94.5473 53.2285C94.7955 53.0549 95.0684 52.9805 95.3414 52.9805Z" fill="#0095FF"/>
<path d="M102.761 57.8668V54.7911C102.761 54.047 102.438 53.6502 101.793 53.6502C101.346 53.6502 101.024 53.7742 100.8 54.047C100.577 54.3199 100.478 54.6919 100.478 55.2376V57.8916H99.7086V54.8159C99.7086 54.4439 99.6341 54.1462 99.4604 53.9726C99.2867 53.799 99.0634 53.6998 98.7159 53.6998C98.2693 53.6998 97.9467 53.8238 97.7481 54.0966C97.5496 54.3695 97.4504 54.8159 97.4504 55.436V57.9164H96.6562V53.0797H97.2766L97.4007 53.7246H97.4504C97.5992 53.5013 97.773 53.3029 98.0211 53.1789C98.2693 53.0549 98.5422 52.9805 98.8648 52.9805C99.6093 52.9805 100.106 53.2533 100.329 53.7742H100.379C100.527 53.5261 100.751 53.3277 100.999 53.1789C101.247 53.0301 101.57 52.9805 101.892 52.9805C102.438 52.9805 102.835 53.1293 103.108 53.4021C103.381 53.675 103.505 54.1214 103.505 54.7415V57.8668H102.761V57.8668Z" fill="#0095FF"/>
<path d="M112.289 54.6174C112.289 55.6592 111.991 56.4777 111.421 57.0234C110.85 57.5691 110.031 57.8667 108.939 57.8667H107.152V51.4922H109.113C110.105 51.4922 110.875 51.765 111.421 52.3107C111.967 52.8564 112.289 53.6253 112.289 54.6174ZM111.445 54.6423C111.445 53.8237 111.247 53.2284 110.85 52.8068C110.453 52.3851 109.857 52.1867 109.038 52.1867H107.996V57.197H108.865C110.577 57.1722 111.445 56.3289 111.445 54.6423Z" fill="#0095FF"/>
<path d="M115.517 57.9412C114.797 57.9412 114.226 57.718 113.829 57.2963C113.432 56.8746 113.209 56.2545 113.209 55.5104C113.209 54.7415 113.408 54.1214 113.78 53.675C114.152 53.2285 114.673 52.9805 115.318 52.9805C115.914 52.9805 116.41 53.1789 116.758 53.5509C117.105 53.923 117.304 54.4687 117.304 55.1384V55.6097H114.028C114.053 56.1553 114.177 56.577 114.45 56.8498C114.723 57.1227 115.07 57.2715 115.566 57.2715C115.815 57.2715 116.063 57.2467 116.286 57.1971C116.509 57.1475 116.782 57.0731 117.105 56.9242V57.6187C116.832 57.7428 116.584 57.8172 116.361 57.8668C116.137 57.9164 115.815 57.9412 115.517 57.9412ZM115.318 53.6254C114.946 53.6254 114.648 53.7494 114.425 53.9974C114.202 54.2455 114.078 54.5679 114.028 55.0144H116.46C116.46 54.5679 116.361 54.2206 116.162 53.9974C115.964 53.7742 115.666 53.6254 115.318 53.6254Z" fill="#0095FF"/>
<path d="M119.339 57.8672L117.527 53.0801H118.371L119.388 55.9077C119.587 56.4782 119.711 56.8998 119.761 57.1727H119.786C119.786 57.1231 119.81 57.0983 119.81 57.0487C119.81 56.999 119.835 56.9494 119.86 56.8998C119.885 56.8502 119.984 56.5278 120.183 55.9077L121.2 53.0801H122.044L120.232 57.8672H119.339Z" fill="#0095FF"/>
<path d="M128.372 54.667C128.372 55.684 128.123 56.4777 127.602 57.073C127.081 57.6683 126.361 57.9411 125.443 57.9411C124.5 57.9411 123.781 57.6435 123.26 57.073C122.738 56.5025 122.49 55.684 122.49 54.6422C122.49 53.6005 122.738 52.8068 123.26 52.2363C123.781 51.6658 124.5 51.3682 125.443 51.3682C126.361 51.3682 127.081 51.6658 127.602 52.2363C128.123 52.8068 128.372 53.6253 128.372 54.667ZM123.309 54.667C123.309 55.5104 123.483 56.1553 123.855 56.6017C124.227 57.0482 124.724 57.2714 125.418 57.2714C126.113 57.2714 126.61 57.0482 126.982 56.6265C127.354 56.2049 127.503 55.5352 127.503 54.6918C127.503 53.8485 127.329 53.2036 126.982 52.7572C126.634 52.3107 126.113 52.1123 125.418 52.1123C124.724 52.1123 124.203 52.3355 123.855 52.7572C123.508 53.1788 123.309 53.8237 123.309 54.667Z" fill="#0095FF"/>
<path d="M131.795 57.9412C131.15 57.9412 130.654 57.718 130.306 57.2467H130.257L130.282 57.4203C130.306 57.6436 130.306 57.842 130.306 58.0156V59.9751H129.537V53.0797H130.182L130.282 53.7246H130.306C130.505 53.4517 130.703 53.2781 130.952 53.1541C131.2 53.0301 131.473 52.9805 131.795 52.9805C132.416 52.9805 132.912 53.2037 133.235 53.6254C133.557 54.047 133.756 54.6671 133.756 55.4608C133.756 56.2546 133.582 56.8498 133.235 57.2963C132.887 57.7428 132.416 57.9412 131.795 57.9412ZM131.671 53.6502C131.2 53.6502 130.852 53.7742 130.654 54.047C130.455 54.3199 130.331 54.7415 130.331 55.312V55.4608C130.331 56.1057 130.43 56.577 130.654 56.8746C130.877 57.1723 131.225 57.2963 131.696 57.2963C132.093 57.2963 132.416 57.1227 132.639 56.8002C132.862 56.4778 132.987 56.0313 132.987 55.436C132.987 54.8407 132.862 54.3943 132.639 54.0966C132.416 53.799 132.068 53.6502 131.671 53.6502Z" fill="#0095FF"/>
<path d="M137.999 56.5278C137.999 56.9742 137.825 57.3215 137.502 57.5695C137.18 57.8176 136.708 57.9416 136.088 57.9416C135.468 57.9416 134.946 57.8424 134.574 57.6439V56.9246C135.095 57.1727 135.616 57.2967 136.088 57.2967C136.485 57.2967 136.783 57.2223 136.957 57.0983C137.13 56.9742 137.229 56.8006 137.229 56.5774C137.229 56.379 137.155 56.2301 136.981 56.1061C136.808 55.9821 136.51 55.8333 136.063 55.6597C135.616 55.486 135.294 55.3372 135.12 55.2132C134.946 55.0892 134.798 54.9403 134.723 54.7915C134.649 54.6427 134.599 54.4443 134.599 54.221C134.599 53.8242 134.748 53.5265 135.071 53.3033C135.393 53.0801 135.84 52.9561 136.386 52.9561C136.932 52.9561 137.428 53.0553 137.924 53.2785L137.651 53.8986C137.155 53.7002 136.733 53.601 136.336 53.601C136.014 53.601 135.765 53.6506 135.592 53.7498C135.418 53.849 135.344 53.9978 135.344 54.1714C135.344 54.3451 135.418 54.4939 135.567 54.5931C135.716 54.6923 136.063 54.8659 136.584 55.0644C136.981 55.2132 137.279 55.362 137.478 55.486C137.676 55.61 137.8 55.7589 137.9 55.9077C137.999 56.0565 137.999 56.3045 137.999 56.5278Z" fill="#0095FF"/>
</svg>
