<svg xmlns="http://www.w3.org/2000/svg" viewBox="0 0 880.23 399.5"><defs><style>.cls-1{fill:#0000c9;}.cls-2{fill:#0095ff;}</style></defs><g id="Layer_2" data-name="Layer 2"><g id="Layer_1-2" data-name="Layer 1"><path class="cls-1" d="M653.73,155.79c8.47,0,12.78,5.49,12.78,17.55,0,1.16-.09,2.32-.17,3.57H633.85c3.51-12.72,11.06-21.12,19.88-21.12m.14,63c-14.53.17-22.17-9.07-22.17-25.45,0-1.08,0-2.16.08-3.24h57a54.28,54.28,0,0,0,1.89-13.4c0-20-12.21-35.26-37.31-35.26-25.59,0-48.36,25.28-48.36,51.82,0,25.45,16.54,40.92,44.28,40.92,12.24,0,24.27-4.16,32.75-10.56l-5.23-13.23A39.39,39.39,0,0,1,653.87,218.75Z"/><path class="cls-1" d="M361.92,167.85H351.61l14.22-52.4h10.8c13.64,0,21.28,9.23,21.28,21.46,0,19.63-15.36,30.94-36,30.94m66.32-32c0-20.71-16.2-35.85-40.73-35.85H340.07L304.25,232h29.93l13.21-48.66h26C403.14,183.32,428.24,164.1,428.24,135.83Z"/><path class="cls-1" d="M467.21,143.89l3.34-12.22c1.66-6.41,4.48-17.39,8.47-29.95,4.16-13,11.72-21.12,21.85-21.12,4.92,0,7.9,2.24,7.9,6.07-.17,4.16-3.59,6.57-3.59,13.22,0,7.74,6.58,13.73,15.05,13.73a18.94,18.94,0,0,0,19-18.88c0-16.06-13.72-26.62-34.66-26.62-30.67,0-50.87,19.63-63.5,65.38L389.93,320h29l44.29-161.52h30.19L473.62,232h29l23.75-88.09H467.21"/><polyline class="cls-1" points="614.15 143.89 537.29 143.89 533.53 158.45 570.7 158.45 513.02 231.98 594.36 231.98 598.12 217.42 556.22 217.42 614.15 143.89"/><path class="cls-1" d="M766.31,142.4c-10.37,0-21.42,6.73-30.15,20.71l5.14-19.22h-29l-23.75,88h29l10.72-39.59c4.31-16.22,14.87-32,21.85-32,7.56,0,4.74,14.14,17.7,14.14,9.39,0,15.05-8.65,15.05-16.55.08-9.23-7.33-15.47-16.55-15.47"/><path class="cls-2" d="M2.08,173c9.47-27.12,63.24-38.6,141.69-29.12L159,88C81.36,78.1,24.68,89.25,15.2,124.6L2.08,173"/><path class="cls-1" d="M285.46,114.87c-9.47,27.11-63.24,38.5-141.69,29l-15.21,55.9c77.62,9.89,134.3-1.25,143.77-36.6l13.13-48.32"/><path class="cls-2" d="M51.77,55.89c114.61,8.24,231.7,65,220.65,107.3l10.3-37.84c3.33-11.9,4.91-18.14,4.91-23C287.54,59.22,174.6,6.57,67,0L51.77,55.89"/><path class="cls-1" d="M235.77,231.89c-114.61-8.23-231.7-65-220.65-107.29L4.9,162.44C1.66,174.33,0,180.49,0,185.4c0,43.25,112.94,95.82,220.64,102.39l15.13-55.9"/><path class="cls-1" d="M473,281.39a72.51,72.51,0,0,1,10.81-.82c7.31,0,12.51,1.7,16,4.91s5.55,7.77,5.55,14.14-2,11.69-5.67,15.31-9.76,5.67-17.41,5.67a82.8,82.8,0,0,1-9.24-.46Zm5.09,34.83a32.48,32.48,0,0,0,5.14.29c10.87,0,16.77-6.08,16.77-16.71.06-9.29-5.2-15.2-16-15.2a29,29,0,0,0-6,.53Z"/><path class="cls-1" d="M517.52,284a3.19,3.19,0,0,1-6.37,0,3.14,3.14,0,0,1,3.21-3.22A3.06,3.06,0,0,1,517.52,284Zm-5.73,36.23V292h5.14v28.28Z"/><path class="cls-1" d="M549.84,292c-.12,2-.24,4.32-.24,7.77v16.42c0,6.49-1.28,10.46-4,12.92s-6.72,3.39-10.29,3.39c-3.39,0-7.13-.82-9.4-2.34l1.28-3.92a15.93,15.93,0,0,0,8.3,2.22c5.26,0,9.12-2.74,9.12-9.87V315.4h-.12a10.11,10.11,0,0,1-9,4.74c-7,0-12-6-12-13.8,0-9.58,6.25-15,12.74-15,4.91,0,7.6,2.58,8.83,4.91h.11l.24-4.26Zm-5.32,11.16a7.51,7.51,0,0,0-7.48-7.77c-4.91,0-8.42,4.15-8.42,10.69,0,5.55,2.81,10.17,8.36,10.17a7.52,7.52,0,0,0,7.13-5.26,9,9,0,0,0,.41-2.75Z"/><path class="cls-1" d="M563.51,284a3.19,3.19,0,0,1-6.37,0,3.14,3.14,0,0,1,3.22-3.22A3.05,3.05,0,0,1,563.51,284Zm-5.72,36.23V292h5.14v28.28Z"/><path class="cls-1" d="M577.66,283.84V292H585v3.91h-7.36v15.26c0,3.5,1,5.49,3.85,5.49a11.62,11.62,0,0,0,3-.35l.24,3.86a12.78,12.78,0,0,1-4.56.7,7.1,7.1,0,0,1-5.55-2.17c-1.46-1.51-2-4-2-7.36V295.88h-4.38V292h4.38v-6.78Z"/><path class="cls-1" d="M606.47,320.25l-.41-3.56h-.17a10.55,10.55,0,0,1-8.65,4.21c-5.73,0-8.65-4-8.65-8.13,0-6.84,6.07-10.58,17-10.52v-.58c0-2.34-.64-6.55-6.43-6.55a14.05,14.05,0,0,0-7.36,2.11l-1.17-3.39a17.56,17.56,0,0,1,9.29-2.52c8.65,0,10.76,5.91,10.76,11.58v10.57a39.92,39.92,0,0,0,.46,6.78Zm-.76-14.43c-5.61-.12-12,.87-12,6.37a4.55,4.55,0,0,0,4.85,4.91,7,7,0,0,0,6.84-4.74,5.49,5.49,0,0,0,.29-1.63Z"/><path class="cls-1" d="M619,278.76h5.14v41.49H619Z"/><path class="cls-2" d="M473,349a58.89,58.89,0,0,1,9.76-.76c5,0,8.71,1.17,11.05,3.27a10.63,10.63,0,0,1,3.45,8.25,11.61,11.61,0,0,1-3,8.41c-2.69,2.86-7.08,4.33-12,4.33a17.06,17.06,0,0,1-4.09-.36v15.78H473Zm5.09,19a17.16,17.16,0,0,0,4.2.4c6.14,0,9.88-3,9.88-8.41,0-5.2-3.68-7.72-9.29-7.72a21.49,21.49,0,0,0-4.79.41Z"/><path class="cls-2" d="M503.67,346.44h5.14v41.49h-5.14Z"/><path class="cls-2" d="M533.12,387.93l-.41-3.56h-.17a10.55,10.55,0,0,1-8.65,4.21c-5.73,0-8.65-4-8.65-8.13,0-6.83,6.08-10.57,17-10.52v-.58c0-2.34-.65-6.55-6.43-6.55a14.09,14.09,0,0,0-7.37,2.11l-1.17-3.39a17.57,17.57,0,0,1,9.3-2.51c8.65,0,10.75,5.9,10.75,11.57v10.57a39.86,39.86,0,0,0,.47,6.78Zm-.76-14.43c-5.61-.12-12,.88-12,6.37a4.55,4.55,0,0,0,4.85,4.91,7,7,0,0,0,6.84-4.74,5.19,5.19,0,0,0,.29-1.63Z"/><path class="cls-2" d="M551.59,351.52v8.13H559v3.91h-7.37v15.26c0,3.5,1,5.49,3.86,5.49a11.69,11.69,0,0,0,3-.35l.23,3.86a12.54,12.54,0,0,1-4.55.7,7.15,7.15,0,0,1-5.56-2.16c-1.46-1.52-2-4-2-7.37V363.56h-4.39v-3.91h4.39v-6.78Z"/><path class="cls-2" d="M565.27,387.93V363.56h-4v-3.91h4V358.3c0-4,.88-7.59,3.27-9.87a9.85,9.85,0,0,1,6.9-2.63,11.88,11.88,0,0,1,4.38.82l-.7,4a7.69,7.69,0,0,0-3.27-.64c-4.39,0-5.5,3.85-5.5,8.18v1.52h6.84v3.91h-6.84v24.37Z"/><path class="cls-2" d="M606.65,373.56c0,10.46-7.25,15-14.09,15C584.91,388.58,579,383,579,374c0-9.46,6.2-15,14-15C601.15,359,606.65,364.91,606.65,373.56Zm-22.45.29c0,6.19,3.57,10.87,8.6,10.87s8.59-4.62,8.59-11c0-4.79-2.4-10.87-8.48-10.87S584.2,368.47,584.2,373.85Z"/><path class="cls-2" d="M613.14,368.47c0-3.33-.06-6.19-.24-8.82h4.5l.18,5.55h.23c1.29-3.8,4.38-6.19,7.83-6.19a5.37,5.37,0,0,1,1.46.17V364a7.52,7.52,0,0,0-1.75-.17c-3.62,0-6.19,2.74-6.9,6.6a15.28,15.28,0,0,0-.23,2.4v15.07h-5.08Z"/><path class="cls-2" d="M632.48,367.3c0-2.92-.06-5.31-.23-7.65h4.5l.23,4.56h.18A9.73,9.73,0,0,1,646,359a8.36,8.36,0,0,1,8,5.66h.11a11.81,11.81,0,0,1,3.16-3.68,9.66,9.66,0,0,1,6.25-2c3.74,0,9.29,2.45,9.29,12.27v16.65h-5v-16c0-5.43-2-8.71-6.14-8.71a6.67,6.67,0,0,0-6.08,4.68,8.54,8.54,0,0,0-.41,2.57v17.47h-5V371c0-4.5-2-7.78-5.9-7.78-3.22,0-5.56,2.57-6.37,5.15a6.89,6.89,0,0,0-.41,2.51v17.06h-5Z"/><path class="cls-2" d="M693.79,349.07a72.51,72.51,0,0,1,10.81-.82c7.31,0,12.51,1.7,16,4.91s5.55,7.77,5.55,14.14-2,11.69-5.67,15.32-9.76,5.66-17.42,5.66a82.74,82.74,0,0,1-9.23-.46Zm5.08,34.83a32.69,32.69,0,0,0,5.15.29c10.87,0,16.77-6.07,16.77-16.71.06-9.29-5.2-15.2-15.95-15.2a29.13,29.13,0,0,0-6,.53Z"/><path class="cls-2" d="M735.64,374.73c.11,6.95,4.55,9.81,9.7,9.81a18.58,18.58,0,0,0,7.83-1.46l.87,3.68a22.8,22.8,0,0,1-9.4,1.76c-8.71,0-13.91-5.73-13.91-14.26S735.75,359,744,359c9.24,0,11.69,8.12,11.69,13.32a21.72,21.72,0,0,1-.17,2.4ZM750.71,371c.06-3.27-1.34-8.35-7.13-8.35-5.2,0-7.48,4.79-7.89,8.35Z"/><path class="cls-2" d="M764,359.65l5.55,15.89a70.91,70.91,0,0,1,2.28,7.25h.18c.64-2.34,1.46-4.67,2.39-7.25l5.5-15.89h5.37l-11.1,28.28H769.3l-10.75-28.28Z"/><path class="cls-2" d="M824,367.83c0,13.56-8.24,20.75-18.29,20.75-10.4,0-17.71-8.07-17.71-20,0-12.51,7.77-20.69,18.29-20.69C817.05,347.9,824,356.14,824,367.83Zm-30.56.64c0,8.42,4.56,16,12.56,16s12.62-7.43,12.62-16.37c0-7.83-4.09-16-12.56-16S793.44,359.82,793.44,368.47Z"/><path class="cls-2" d="M830.43,368.88c0-3.62-.11-6.54-.23-9.23h4.62l.23,4.85h.12A11.1,11.1,0,0,1,845.22,359c6.84,0,12,5.78,12,14.37,0,10.17-6.2,15.2-12.86,15.2a9.93,9.93,0,0,1-8.71-4.45h-.11V399.5h-5.09Zm5.09,7.54a11.25,11.25,0,0,0,.23,2.1,7.93,7.93,0,0,0,7.72,6c5.43,0,8.59-4.44,8.59-10.92,0-5.67-3-10.52-8.42-10.52a8.19,8.19,0,0,0-7.77,6.37,8.1,8.1,0,0,0-.35,2.1Z"/><path class="cls-2" d="M863,382.67a13.39,13.39,0,0,0,6.77,2.05c3.75,0,5.5-1.87,5.5-4.21s-1.46-3.8-5.26-5.2c-5.09-1.81-7.48-4.62-7.48-8,0-4.55,3.68-8.29,9.76-8.29a14.07,14.07,0,0,1,7,1.75L878,364.5a11,11,0,0,0-5.79-1.64c-3,0-4.73,1.76-4.73,3.86,0,2.34,1.69,3.39,5.37,4.79,4.91,1.87,7.43,4.33,7.43,8.53,0,5-3.86,8.48-10.58,8.48a16.13,16.13,0,0,1-7.95-1.93Z"/></g></g></svg>